<?xml version="1.0" encoding="utf-8"?>
<svg version="1.2" xmlns="http://www.w3.org/2000/svg" width="64px" height="64px" xml:space="preserve"><path fill="#007BC7" d="M61 26.5a7.5 7.5 0 1 0-11.754 6.174c-.892 3.246-1.908 6.843-2.556 8.813C44.97 46.735 42.17 52.1 34.467 52.1c-6.547 0-8.754-5.594-9.485-8.872-2.3-.177-3.216-.648-3.43-.773-.24-.14-.197-.306-.168-.385.206.01.41.04.616.04 2.19-.001 4.379-.566 6.332-1.696 7.791-4.512 9.842-21.7 7.924-26.535-1.18-2.976-3.917-4.29-6.417-4.757-.324-1.128-.964-1.918-1.783-2.011-1.356-.154-2.674 1.646-2.943 4.02-.27 2.374.612 4.423 1.969 4.577.828.094 1.638-.546 2.208-1.594 1.043.217 2.144.667 2.518 1.608.456 1.149.516 5.446-.566 10.213-1.147 5.058-3.173 8.853-5.415 10.152a7.656 7.656 0 0 1-7.652 0c-5.479-3.172-7.103-17.54-5.982-20.365.373-.944 1.485-1.395 2.532-1.61.57 1.05 1.38 1.69 2.21 1.596 1.356-.153 2.238-2.203 1.969-4.577-.27-2.374-1.587-4.174-2.944-4.02-.819.093-1.459.883-1.783 2.011-2.503.465-5.25 1.776-6.433 4.757-1.917 4.835.136 22.024 7.925 26.535 1.262.73 2.626 1.199 4.02 1.457.531 5.63 4.16 15.23 14.778 15.23 12.365 0 15.835-10.579 16.974-14.054.683-2.08 1.725-5.769 2.634-9.076C57.947 33.677 61 30.448 61 26.5zm-7.5 2.625a2.625 2.625 0 1 1 0-5.25 2.625 2.625 0 0 1 0 5.25z"/></svg>