<?xml version="1.0" encoding="utf-8"?>
<svg version="1.2" xmlns="http://www.w3.org/2000/svg" width="64px" height="64px" xml:space="preserve"><path fill="#007BC7" d="M18.54 6.008C18.274 9.938 20.27 12 23.5 12c3.167 0 5-2.218 5-5.41 0-2.077-.78-5.995-2.816-6.436-2.36-.51-10.38 3.296-10.204 4.719.107.87 1.775 1.092 3.06 1.135zM44.5 13c3.167 0 5-1.952 5-5.411C49.5 4.306 47.75 2 44.5 2c-3.085 0-5 1.95-5 5.589 0 3.193 1.832 5.411 5 5.411zM56.944 33.745c-.702-3.768-1.57-5.828-1.886-8.446-.702-5.796-2.471-8.581-5.763-9.594A15.656 15.656 0 0 0 44.53 15h-.06c-1.702 0-3.197.222-4.765.705a6.55 6.55 0 0 0-2.928 1.812c1.496.757 2.376 2.344 2.376 4.718 0 2.992-1.706 5.028-4.653 5.028-2.946 0-4.653-1.787-4.653-5.028 0-2.249.88-3.998 2.532-4.781C30.715 15.146 27.984 14 23.501 14l-.001.001V14c-1.69 0-3.112.18-4.33.52-2.33.534-4.659 1.684-5.913 4.119-2.382 4.625-7.077 18.762-7.077 18.762.295.21.797.272 1.38.205.413 4.247 2.39 24.557 2.482 25.304.086.69 2.418.462 2.345-.278-.077-.786-1.46-20.34-1.881-26.316.469-.397.859-.879 1.094-1.437.946-2.247 1.98-4.8 2.673-6.752.897-2.525 1.48-4.042 2.24-5.669.163-.347.317-.558.483-.409l.004-.013V63s4.865.04 5.237-5.05l.736-19.457A.508.508 0 0 1 23.5 38c.36 0 .508.28.516.493l.731 19.317c.275 4.975 4.757 5.181 5.208 5.19V47.42c-.994 0-2.794-.571-2.927-2.92-.292-5.165-.153-13.43 2.994-14.972 1.927-.945 7.12-.945 9.229-.035 2.909 1.256 2.833 9.749 2.822 14.965-.005 2.352-2.04 2.965-3.032 2.965v15.575c.143-.024 3.711-.64 3.96-4.207 0 0 .815-8.695.96-12.855.56-.089.588-.098 1.063-.168.142 4.064.976 12.92.976 12.92.189 3.75 3.984 4.312 3.984 4.312L50 45.698c1.76.167 2.935.453 2.935.453 0-8.86-2.149-12.396-2.884-15.173-.39-1.476-.309-3.02.047-4.499.334-1.39.763-2.684.089-5.43 0 0 .355.623.497 1.027.79 2.244.56 6.584 3.745 16.587 1.388-.177 3.086-1.853 2.515-4.918z"/></svg>