<?xml version="1.0" encoding="utf-8"?>
<svg version="1.2" xmlns="http://www.w3.org/2000/svg" width="64px" height="64px" xml:space="preserve"><path fill="#007BC7" d="M54.497 26.424c1.187-.815 1.932-1.79 2.142-2.272.442-1.01.151-2.754-1.536-3.08-.746-.146-2.16-.01-3.408.167-.967-3.485-2.65-9.151-3.632-10.177C46.745 9.687 42.124 9 32 9s-14.745.687-16.063 2.063c-.982 1.025-2.665 6.69-3.632 10.176-1.248-.177-2.662-.313-3.409-.168-1.687.327-1.977 2.07-1.535 3.08.21.484.955 1.458 2.142 2.273C7.568 29.028 7 31.291 7 35.5V47s0 3.365.47 5.604C7.642 53.42 8.398 54 9.268 54h6.464c.871 0 1.626-.58 1.798-1.395.262-1.251.378-2.85.43-4.021l-6.13-1.22c-.317-.102-.271-.308-.25-.364h40.84c.021.056.067.262-.25.364l-6.13 1.22c.052 1.17.168 2.77.43 4.02.172.816.927 1.396 1.798 1.396h6.464c.871 0 1.626-.58 1.798-1.395C57 50.364 57 47 57 47V35.5c0-4.209-.568-6.472-2.503-9.076zM18.895 13.741c.587-.292 4.896-.79 13.105-.79s12.518.498 13.104.79c.582.987 2.438 7.39 2.968 9.976-2.922.812-9.574 1.363-16.072 1.363-6.498 0-13.15-.551-16.072-1.363.53-2.585 2.386-8.988 2.967-9.976zm1.588 25.98l-5.888-.471c-1.595-.128-2.572-1.4-2.865-2.797l-.243-1.686c-.15-1.043.922-1.929 1.978-1.635l4.766 1.324c1.037.4 1.82 1.21 2.154 2.226l.653 2.426c.087.322-.203.642-.555.612zM38 44H26v-3h12v3zm14.513-9.233l-.243 1.686c-.292 1.396-1.27 2.67-2.865 2.796l-5.888.471c-.352.03-.642-.29-.555-.612l.653-2.426c.334-1.017 1.117-1.827 2.154-2.226l4.766-1.324c1.056-.294 2.128.592 1.978 1.635z"/></svg>