<?xml version="1.0" encoding="utf-8"?>
<svg version="1.2" xmlns="http://www.w3.org/2000/svg" width="64px" height="64px" xml:space="preserve"><path fill="#007BC7" d="M29.005 51.115c-1.945.79-3.796 1.282-5.005 1.282-3.051 0-10.188-3.084-12.636-6.363 4.062-1.402 7.055-2.451 7.386-4.606.224-1.98.46-3.952.618-5.255a15.032 15.032 0 0 1-1.726-2.006c-.026-.037-.055-.072-.08-.109a15.408 15.408 0 0 1-2.413-5.349 47.113 47.113 0 0 1 17.718.004C31.817 33.198 28.804 38 24 38c-1.121 0-2.24-.195-3.055-.581.37.886 1.185 1.731 3.286 2.255 5.2 1.294 6.812-2.891 9.548-4.286.74-.377 2.335-.957 4.539-1.316-.551-1.842-1.543-3.483-2.167-5.1a2.472 2.472 0 0 0 1.534-1.949l1.287-8.467a2.514 2.514 0 0 0-1.352-2.62c.035-3.564-.462-6.466-2.757-7.842-2.75-1.649-5.843-.908-5.843-.908s-2.973-3.794-8.173-2.814C15.313 5.415 12.1 9.826 11.013 15.72c-.062.017-.126.028-.189.045-1.21.332-1.983 1.531-1.796 2.791l1.287 8.467a2.461 2.461 0 0 0 1.896 2.057c-1.034 2.799-3.994 5.572-2.697 9.49.376 1.135 2.068 2.335 4.258 3.39-.494.205-1.095.437-1.847.702-2.055.724-6.053 1.86-7.714 3.596C1.931 48.643.434 56.756 0 60h33.83c-2.94-1.544-4.791-4.77-4.825-8.885zM13.013 25.202l-.223-1.52c2.727-1.46 8.213-2.307 8.213-2.307.003-.06-.012-.27-.345-.275 0 0-2.84-.464-8.156.62l-.343-2.328a1.007 1.007 0 0 1 .744-1.128 47.134 47.134 0 0 1 22.194 0c.498.12.82.616.744 1.128l-.221 1.501c-2.603-.928-4.868-.882-4.868-.882-.331-.036-.373.171-.377.23 0 0 2.674.565 5.06 1.91l-.448 3.051a.983.983 0 0 1-1.171.824A49.851 49.851 0 0 0 24 25.048c-3.292 0-6.586.329-9.815.978a.983.983 0 0 1-1.172-.823z"/><path fill="#007BC7" d="M63.897 50.715L60.25 41.16l.006.002a1.5 1.5 0 0 0 1.187-2.755c-.44-.19-4.373-1.836-7.085-1.3-1.36.266-2.358.685-3.598 1.066a3 3 0 1 0-5.523 0c-1.239-.381-2.237-.8-3.596-1.067-2.718-.533-6.647 1.112-7.086 1.301a1.5 1.5 0 0 0 1.166 2.761l-3.642 9.547c-.064.144-.08.441-.063.764C32.198 55.822 34.803 58 38 58c3.174 0 5.772-2.14 5.986-6.422.012-.252.036-.513-.09-.863l-4.074-10.68c.456-.048.886-.055 1.24.015 1.654.325 2.904 1.015 4.938 1.387V59h-3a3 3 0 0 0-3 3v1h16v-1a3 3 0 0 0-3-3h-3V41.437c2.035-.372 3.284-1.062 4.938-1.387.34-.066.76-.066 1.218-.019L52.08 50.715c-.064.144-.08.441-.063.764C52.198 55.822 54.803 58 58 58c3.174 0 5.772-2.14 5.986-6.422.012-.252.036-.513-.09-.863zM41.1 51c0 2.667-1.443 4-3.1 4-.352 0-.686-.073-1-.194 1.163-.447 2-1.707 2-3.806h-4.032l3.02-7.916C37.993 43.096 41.113 51 41.1 51zM58 55c-.352 0-.686-.073-1-.194 1.163-.447 2-1.707 2-3.806h-4.032l3.02-7.916C57.993 43.096 61.113 51 61.1 51c0 2.667-1.443 4-3.1 4z"/></svg>