<?xml version="1.0" encoding="utf-8"?>
<svg version="1.2" xmlns="http://www.w3.org/2000/svg" width="64px" height="64px" viewBox="0 4 64 64" xml:space="preserve"><path fill="#007BC7" d="M55.333 22.994C55.168 20.787 53.2 19 51 19H40v-4c0-2.206-1.794-4-4-4h-8c-2.206 0-4 1.794-4 4v4H13c-2.202 0-4.168 1.787-4.333 3.994a180.667 180.667 0 0 0 0 26.012C8.832 51.213 10.798 53 13 53h38c2.201 0 4.168-1.787 4.333-3.994.625-8.66.625-17.353 0-26.012zM22 34.502l-6.001-3 3.89-7.78L24.002 23l1.889 3.723-3.89 7.78zM36 19h-8v-4h8v4z"/></svg>