<?xml version="1.0" encoding="utf-8"?>
<svg version="1.2" xmlns="http://www.w3.org/2000/svg" width="64" height="64" viewBox="0 4 64 64"><path fill="#007BC7" d="M47.877 29.792c.94-2.195 1.342-3.83 1.004-5.579-.379-1.954-3.598-3.552-8.352-4.443-1.465-.275-2.59-.193-3.443-1.391-.324-.454-.506-1.027-.569-1.681A3.998 3.998 0 0 0 35 9c-.761 0-1.465.224-2.071.593.556 2.735-.167 3.502-.167 3.502-.366.428-.696.205-.785.131.005-.076.023-.149.023-.226a4 4 0 0 0-8 0c0 1.671 1.027 3.1 2.483 3.698-.063.654-.245 1.227-.569 1.68-.854 1.2-1.978 1.117-3.443 1.392-4.754.891-7.973 2.489-8.352 4.443-.226 1.171-.114 2.296.263 3.567 3.436-1.741 9.735-2.83 17.118-2.83.09.148-.028.453-.557.547-.48.086-11.272 1.239-16.31 5.352-2.104 4.594-3.457 9.792-3.412 13.814C11.287 50.535 15.407 55 31.5 55c16.092 0 20.213-4.465 20.28-10.337.048-4.332-1.514-10.037-3.903-14.871zM30.041 19.03c.293-.802.488-1.78.472-2.942.403-.329.737-.73.987-1.19.25.46.584.861.987 1.19-.016 1.162.179 2.14.472 2.942-1.642-.042-1.276-.042-2.918 0zM36 47.79c-1.41.334-2.077.41-3.436.41-3.563 0-6.077-1.743-6.82-5.538H24v-1.948h1.539v-.539c0-.461 0-.949.051-1.384H24v-1.974h1.898c.923-3.846 3.538-5.795 7.102-5.795 1 0 1.795.077 2.871.308v2.692c-1.256-.23-1.923-.333-2.948-.333-1.949 0-3.231 1.05-3.795 3.128h4.667v1.974h-5c-.026.359-.026.718-.026 1.076 0 .308 0 .59.026.847h5v1.948h-4.692c.589 2.102 1.974 2.974 3.666 2.974 1.205 0 1.897-.102 3.23-.384v2.538z"/></svg>