<?xml version="1.0" encoding="utf-8"?>
<!-- Generator: Adobe Illustrator 21.0.0, SVG Export Plug-In . SVG Version: 6.00 Build 0)  -->
<svg version="1.1" id="Layer_1" xmlns="http://www.w3.org/2000/svg" xmlns:xlink="http://www.w3.org/1999/xlink" x="0px" y="0px"
	 viewBox="0 0 76 76" enable-background="new 0 0 76 76" xml:space="preserve">
<g>
	<path fill="#808080" d="M38,0.5C17.3,0.5,0.5,17.3,0.5,38S17.3,75.5,38,75.5S75.5,58.7,75.5,38S58.7,0.5,38,0.5z M38,11.8
		c6.2,0,11.3,5,11.3,11.3s-5,11.3-11.3,11.3s-11.3-5-11.3-11.3S31.8,11.8,38,11.8z M38,65c-9.4,0-17.7-4.8-22.5-12.1
		c0.1-7.5,15-11.5,22.5-11.5c7.5,0,22.4,4.1,22.5,11.5C55.7,60.2,47.4,65,38,65z"/>
	<path fill="none" d="M-7-7h90v90H-7V-7z"/>
</g>
</svg>
