<svg id="Laag_1" data-name="Laag 1" xmlns="http://www.w3.org/2000/svg" width="100" height="100" viewBox="0 0 100 100"><defs><style>.cls-1{fill:#fff;}.cls-2{fill:#f49712;}</style></defs><title>digid-logo</title><rect width="100" height="100" rx="14.11" ry="14.11"/><path class="cls-1" d="M11.88,53.65h8.21a11.13,11.13,0,1,1,0,22.26H11.88ZM17.67,71H19c3.45,0,6.41-1.89,6.41-6.23,0-4-2.63-6.23-6.35-6.23H17.67Z"/><path class="cls-1" d="M38.81,75.91H33.44V60.76h5.37Z"/><path class="cls-1" d="M58.36,74.44c0,6.43-3.19,9-8.77,9-3.48,0-8.15-1.8-8.62-5.78h6a1.84,1.84,0,0,0,1,1.15,3.6,3.6,0,0,0,1.53.35c2.9,0,3.46-1.89,3.46-4.34v-.71a6.31,6.31,0,0,1-4.81,2.07c-4.43,0-7.47-3.37-7.47-7.74s3.13-8.21,7.76-8.21a5.17,5.17,0,0,1,4.46,2.1H53v-1.6h5.37Zm-12.1-6.2a3.46,3.46,0,0,0,6.91,0,3.46,3.46,0,0,0-6.91,0Z"/><path class="cls-2" d="M66.57,75.91H61.2V60.76h5.37Z"/><path class="cls-2" d="M69.73,53.65h8.2a11.13,11.13,0,1,1,0,22.26h-8.2ZM75.51,71h1.3c3.46,0,6.41-1.89,6.41-6.23,0-4-2.63-6.23-6.35-6.23H75.51Z"/><path class="cls-1" d="M39.16,55a3,3,0,1,1-3-3A3,3,0,0,1,39.16,55Z"/><path class="cls-2" d="M66.83,55a3,3,0,1,1-3-3A3,3,0,0,1,66.83,55Z"/></svg>