<?xml version="1.0" encoding="utf-8"?>
<!-- Generator: Adobe Illustrator 21.1.0, SVG Export Plug-In . SVG Version: 6.00 Build 0)  -->
<svg version="1.1" id="Laag_1" xmlns="http://www.w3.org/2000/svg" xmlns:xlink="http://www.w3.org/1999/xlink" x="0px" y="0px"
	 width="233px" height="40px" viewBox="0 0 233 40" style="enable-background:new 0 0 233 40;" xml:space="preserve">
<style type="text/css">
	.st0{fill:none;}
	.st1{fill:#154273;}
	.st2{fill:#FFFFFF;}
	.st3{font-family:'RijksoverheidSerifWeb-Regular';}
	.st4{font-size:34.3147px;}
</style>
<title>een-overheid</title>
<polyline class="st0" points="0,65.8 0,-7.3 314,-52.3 "/>
<rect y="-0.3" class="st1" width="44" height="41"/>
<path class="st2" d="M22.5,26.5h-0.7v-1.8h0.7V26.5z M25.5,18.4h-0.7v-1.8h0.7V18.4z M13.2,15.3c-0.1,0-0.4,0-0.4,0.1s0.2,0,0.4,0.1
	c0.5,0.1,0.7,0.4,1.1,0.4c0.3,0,0.7-0.2,0.5-0.7c0-0.1-0.1-0.1-0.1,0c-0.1,0.2-0.3,0.3-0.6,0.3C13.9,15.4,13.8,15.3,13.2,15.3z
	 M9.6,17.1c0.1,0.1,0.7,0.9-0.3,1.2c0,0-0.1,0.1,0,0.1c0.7,0.3,1.1-0.3,1.1-0.3c0.4,0.8-0.2,1.3-0.2,1.3c0.1,0.1,0.4,0.4,0.9,0.5
	c0.2-0.1,0.5-0.3,0.6-0.6c0,0,0.1,0.4,0,0.7c1.4,0.1,2-1,3.1-0.8l0,0c0-0.7-0.4-2-1.8-2.3s-1-0.8-1-0.8c0.6,0,0.9,0.2,0.9,0.2
	c0.1-0.2,0-0.4,0-0.4c0.1-0.1,0.1-0.3,0.1-0.3c-0.7,0-0.8-0.1-0.8-0.1c-0.1-0.4,0.2-0.9,1.1-0.4c0.2-0.2,0.2-0.5,0.2-0.5
	c0.1,0,0.1-0.2,0.1-0.2c0-0.2-0.8-0.6-1-0.6c0-0.2-0.4-0.6-1.3-0.4c-0.4,0.1-0.7-0.1-0.6-0.3c0,0-0.1-0.1-0.1,0
	c-0.1,0.1-0.2,0.4,0.1,0.6c0.4,0.2,0.4,0.6,0.4,0.7c0,0.1-0.1,0.1-0.1,0c-0.2-0.7-1.2-0.9-1.7-0.5c0,0.4,0.4,0.6,0.7,0.6
	c0.1,0,0.3-0.1,0.3-0.3c0-0.1,0-0.1,0.1,0c0.1,0.3-0.3,0.8-0.8,0.5C9,15.3,9.3,16,9.3,16.2c0.1,0.5-0.1,0.9-0.5,0.7l0,0
	C8.8,17,9.2,17.4,9.6,17.1z M12.7,14.3c-0.3,0.3-0.7,0.2-0.8-0.3C12.5,14,12.7,14,12.7,14.3z M29.5,15.4c-0.3,0-0.5-0.1-0.6-0.3
	c0-0.1-0.1-0.1-0.1,0c-0.1,0.5,0.2,0.7,0.5,0.7c0.4,0,0.6-0.3,1.1-0.4c0.2,0,0.4,0,0.4-0.1s-0.3-0.1-0.4-0.1
	C29.9,15.3,29.9,15.4,29.5,15.4z M35,16.7C35,16.7,34.9,16.7,35,16.7c-0.5,0.2-0.7-0.3-0.6-0.7c0.1-0.3,0.3-1-0.3-1.5
	c-0.6,0.3-0.9-0.2-0.8-0.5c0-0.1,0.1-0.1,0.1,0c0,0.2,0.2,0.3,0.3,0.3c0.2,0,0.6-0.3,0.7-0.6c-0.6-0.4-1.5-0.2-1.7,0.5
	c0,0.1-0.1,0.1-0.1,0s0-0.5,0.4-0.7s0.2-0.5,0.1-0.6H33c0.1,0.3-0.2,0.4-0.6,0.3c-0.9-0.1-1.2,0.2-1.3,0.4c-0.2,0.1-1,0.5-1,0.6
	c0,0,0,0.2,0.1,0.2c0,0,0,0.3,0.2,0.5c1-0.6,1.2,0,1.1,0.4c0,0-0.2,0.1-0.8,0.1c0,0,0,0.2,0.1,0.3c0,0-0.2,0.2,0,0.4
	c0,0,0.3-0.3,0.9-0.2c0,0,0.4,0.6-1,0.8s-1.8,1.6-1.8,2.3c0,0,0,0.1,0,0c1.1-0.2,1.6,1,3.1,0.8c-0.1-0.3,0-0.7,0-0.7
	c0.1,0.3,0.4,0.5,0.6,0.6c0.5-0.1,0.9-0.4,0.9-0.5c0,0-0.5-0.4-0.2-1.3c0,0,0.3,0.5,1.1,0.3c0.1,0,0-0.1,0-0.1
	c-1-0.3-0.3-1.1-0.3-1.2C34.6,17.4,35,17,35,16.7z M31.8,14c-0.1,0.5-0.5,0.6-0.8,0.3C31.1,14,31.3,14,31.8,14z M21.6,5.9
	c0,0.1,0.1,0.2,0.1,0.3c0.1,0.1,0.1,0.2,0,0.2c0,0-0.1,0.1-0.2,0c-0.1,0-0.2-0.1-0.3-0.1c-0.2,0-0.3,0.1-0.3,0.3
	c0,0.1,0.1,0.3,0.3,0.3c0.1,0,0.2-0.1,0.3-0.1c0.1-0.1,0.2-0.1,0.2,0c0,0,0,0.5-0.1,0.8c-0.3,0.1-0.5,0.4-0.5,0.5
	c0,0.4,0.4,0.7,0.7,0.8c0.3-0.1,0.7-0.4,0.7-0.8c0-0.2-0.2-0.4-0.5-0.5c0-0.5,0-0.9,0-1c0,0,0.1-0.1,0.2,0c0.1,0,0.2,0.1,0.3,0.1
	c0.2,0,0.3-0.1,0.3-0.3c0-0.1-0.1-0.3-0.3-0.3c-0.1,0-0.2,0.1-0.3,0.1c-0.1,0.1-0.2,0.1-0.2,0c0,0-0.1-0.1,0-0.2
	c0-0.1,0.1-0.2,0.1-0.3c0-0.2-0.1-0.3-0.3-0.3C21.8,5.5,21.6,5.7,21.6,5.9z M21.9,9c-0.3,0-0.5,0.2-0.5,0.5s0.2,0.5,0.5,0.5
	s0.5-0.2,0.5-0.5S22.2,9,21.9,9z M21.9,13.8c2,0,3.2,0.4,3.2,0.4c0-1,0-1.6,0.6-1.5c-0.3-0.9,1.1-1.2,1.1-2.3c0-0.7-0.5-0.8-0.7-0.8
	c-0.5,0-0.4,0.3-0.8,0.3h-0.1c0,0.1,0.1,0.4,0.3,0.4c0.2,0,0.2-0.2,0.4-0.2c0.1,0,0.2,0.1,0.2,0.3c0,0.5-0.3,1-0.7,1.4
	c-0.1-0.1-0.2-0.2-0.3-0.2c-0.2,0-0.4,0.2-0.4,0.5c0,0.1,0,0.2,0.1,0.3c-0.1,0.1-0.2,0.1-0.3,0.1c-0.2,0-0.4-0.1-0.4-0.4
	c0-0.8,1.1-1.5,1.1-2.6c0-0.5-0.3-1-1-1S23.6,9.2,23,9.2h-0.1c0,0,0.1,0.4,0.4,0.4c0.4,0,0.4-0.6,0.8-0.6c0.1,0,0.3,0.1,0.3,0.5
	c0,0.3-0.2,0.8-0.4,1.3c-0.1-0.1-0.2-0.1-0.3-0.1c-0.3,0-0.5,0.3-0.5,0.6c0,0.2,0.1,0.4,0.2,0.5c-0.2,0.2-0.3,0.4-0.5,0.4
	c-0.4,0-0.6-0.3-0.6-0.5c0-0.3,0.5-0.4,0.5-0.9c0-0.3-0.2-0.5-0.4-0.5c-0.2,0-0.3,0.1-0.3,0.1s-0.1-0.1-0.3-0.1
	c-0.2,0-0.4,0.2-0.4,0.5c0,0.5,0.5,0.6,0.5,0.9c0,0.3-0.2,0.5-0.6,0.5c-0.2,0-0.4-0.2-0.5-0.4c0.1-0.1,0.2-0.3,0.2-0.5
	c0-0.3-0.2-0.6-0.5-0.6c-0.1,0-0.2,0.1-0.3,0.1c-0.2-0.5-0.4-1-0.4-1.3C19.8,9.1,20,9,20.1,9c0.3,0,0.4,0.6,0.8,0.6
	c0.3,0,0.4-0.4,0.4-0.4s0,0-0.1,0c-0.6,0-0.5-0.7-1.2-0.7s-1,0.5-1,1c0,1,1.1,1.8,1.1,2.6c0,0.4-0.3,0.4-0.4,0.4s-0.2,0-0.3-0.1
	c0-0.1,0.1-0.2,0.1-0.3c0-0.3-0.2-0.5-0.4-0.5c-0.1,0-0.3,0.1-0.3,0.2c-0.4-0.4-0.7-0.9-0.7-1.4c0-0.2,0.1-0.3,0.2-0.3
	c0.2,0,0.2,0.2,0.4,0.2c0.2,0,0.3-0.2,0.3-0.4h-0.1c-0.4,0-0.3-0.3-0.8-0.3c-0.2,0-0.7,0.1-0.7,0.8c0,1.1,1.4,1.5,1.1,2.3
	c0.6-0.1,0.6,0.5,0.6,1.5C18.7,14.2,19.8,13.8,21.9,13.8z M18.1,15.4c-0.6,0.1-1,0.2-1.1,0.3c0-0.2,0.1-0.5,0.3-0.5c0,0,0,0,0-0.1
	c-0.5-0.3-0.8,0.3-0.8,0.3c-0.2,0-0.4,0-0.4,0.3c0,0.7-1.6,1.1-2,1.2C14.8,17.2,15,18,15,18c0.5-0.5,1-0.9,1.2-0.9
	c0.1,0,0.2,0.2,0.2,0.3c0,0,0,0,0.1,0c0.3-0.4,0.1-0.5,0.1-0.6s0-0.4,0.4-0.4V21h-0.2c-0.1,0-0.8-0.6-1.6-1.1
	c-0.8-0.5-1.2-0.2-2.1,0.3c-1.2,0.6-2.4,0.1-2.4,0.1c-1,0.7-1.4,2.8-1.4,2.8c-0.2,0.1-0.5,0.2-0.9,0.2c-0.8,0-0.9-0.5-0.9-0.7
	c0-1.2,1.5-1.7,1.5-2.9c0-0.3-0.1-1.4-1.6-1.4c-0.2,0-1.3,0-1.3,0c-0.5,0-0.7-0.4-0.7-0.5s-0.1,0-0.1,0c0,0.1-0.1,0.3-0.1,0.5
	c0,0.5,0.3,0.8,0.8,0.8c0.2,0,0.5-0.1,0.5-0.1h0.1c-0.2,0.3-0.2,0.8-0.2,0.9h0.1c0.1-0.5,0.6-1,1.2-1c0.8,0,0.8,0.7,0.8,0.8
	c0,1-1.7,1.7-1.7,3s1.4,1.6,2.2,1.4c0,1.3-1.6,1.8-1.6,0.8c0,0,0-0.1-0.1,0c-0.2,0.5-0.1,0.9,0.5,1c0,0,0,0,0,0.1
	c-0.6,0.4-0.3,1.9-0.2,2.3c0,0.6-0.6,0.5-0.6,0.5s-0.1,0,0,0.1c0.4,0.5,1,0,1,0c0.5,0.1,0.3,0.5,0,0.7v0.1c0.1,0,0.7,0.1,0.8-0.4
	c0.3,0.3,0.7,0.2,0.8,0.2c0.1-0.1,0.7-0.3,0.8,0.4c0,0,0,0,0.1,0c0.4-0.6,0-0.9-0.3-1c0,0,0.4-0.3,0.7,0.1l0,0
	c0-0.7-0.5-0.8-0.9-0.5c0-0.1-0.1-0.5,0.4-0.5l0,0c-0.4-0.5-0.8,0-0.9,0.1c-0.2,0.2-0.7,0.1-0.7,0.1c0.2-2.5,2.4-1.6,2.7-2.8
	c0-0.1,0,0,0,0c0.1,0.3,0.8,0.3,1-0.2c0,0,0-0.1,0,0c-0.6,0.6-2.1-1.4-0.1-3c1.7-1.4,3.2-0.6,3.7-0.2c0,0.2-0.1,0.3-0.2,0.3
	c0,0,0,0,0,0.1c0.2,0.1,0.4,0,0.5-0.1c0.4,0.3,0.1,0.6-0.1,0.7c0,0,0,0,0,0.1c0.3,0.1,0.6-0.3,0.6-0.5H17V24c0,2,2.3,2.3,4.9,4
	c2.6-1.7,4.9-2,4.9-4v-1.4h0.1c0,0.2,0.3,0.5,0.6,0.5c0,0,0,0,0-0.1c-0.1-0.1-0.5-0.4-0.1-0.7c0.1,0.2,0.3,0.2,0.5,0.1
	c0,0,0,0,0-0.1c-0.1,0-0.2-0.1-0.2-0.3c0.6-0.5,2.1-1.2,3.7,0.2c2,1.6,0.5,3.6-0.1,3l0,0c0.1,0.6,0.9,0.5,1,0.2l0,0
	c0.3,1.2,2.5,0.3,2.7,2.8c0,0-0.5,0.1-0.7-0.1c-0.1-0.1-0.4-0.5-0.9-0.1l0,0c0.6,0,0.4,0.4,0.4,0.5c-0.4-0.3-1-0.3-0.9,0.5
	c0,0.1,0,0.1,0,0c0.3-0.4,0.7-0.1,0.7-0.1c-0.3,0-0.8,0.4-0.3,1c0,0,0,0.1,0.1,0c0.1-0.7,0.7-0.5,0.8-0.4c0.1,0,0.5,0.2,0.8-0.2
	c0.1,0.5,0.8,0.5,0.8,0.4c0,0,0,0,0-0.1c-0.3-0.2-0.5-0.5-0.1-0.7c0,0,0.5,0.5,1,0v-0.1c-0.1,0-0.7,0.1-0.6-0.5
	c0-0.4,0.4-1.9-0.2-2.3c0,0-0.1,0,0-0.1c0.6-0.1,0.7-0.5,0.5-1c0-0.1-0.1,0-0.1,0c0,1-1.6,0.5-1.6-0.8c0.8,0.2,2.2-0.1,2.2-1.4
	s-1.7-2-1.7-3c0-0.2,0-0.8,0.8-0.8c0.6,0,1.1,0.5,1.2,1c0,0,0,0,0.1,0c0.1-0.1,0.1-0.6-0.2-0.9c0,0,0-0.1,0.1,0
	c0.1,0,0.3,0.1,0.5,0.1c0.5,0,0.8-0.3,0.8-0.8c0-0.3-0.1-0.4-0.1-0.5c0,0,0-0.1-0.1,0c-0.1,0.2-0.2,0.5-0.7,0.5c0,0-1.1,0-1.3,0
	c-1.4,0-1.6,1.2-1.6,1.4c0,1.2,1.5,1.7,1.5,2.9c0,0.3-0.1,0.7-0.9,0.7c-0.3,0-0.7-0.1-0.9-0.2c0,0-0.3-2.1-1.4-2.8
	c0,0-1.2,0.6-2.4-0.1c-0.9-0.5-1.3-0.8-2.1-0.3C27.7,20.4,27,21,26.9,21h-0.2v-4.7c0.4,0,0.4,0.3,0.4,0.4s-0.1,0.2,0.1,0.6
	c0,0,0,0,0.1,0c0-0.1,0.1-0.3,0.2-0.3s0.7,0.4,1.2,0.9c0,0,0.3-0.8,0.9-1.1c-0.4-0.1-2-0.4-2-1.2c0-0.2-0.3-0.3-0.4-0.3
	c0,0-0.3-0.6-0.8-0.3v0.1c0.2,0.1,0.3,0.3,0.3,0.5c-0.5-0.1-2.5-0.7-4.9-0.7c-1.2,0-2.2,0.1-3.1,0.3v1.6H18L18.1,15.4L18.1,15.4
	 M13.8,32.1c-0.2-0.1-0.3-0.2-0.3-0.4v-1c-0.3-0.1-1.1-0.4-2.7-0.4c-1.3,0-1.7,0.3-1.8,0.4l-0.4,1.9c0,0,0.5-0.5,2.4-0.4
	c2.3,0.1,4.7,1.5,4.7,0.1v-0.9C14,31.4,13.8,32,13.8,32.1z M27.9,31.4v0.9c0,1.4,2.4,0.1,4.7-0.1c1.9-0.1,2.4,0.4,2.4,0.4l-0.4-1.9
	c0-0.1-0.4-0.4-1.8-0.4c-1.6,0-2.4,0.3-2.7,0.4v1c0,0.2-0.1,0.3-0.3,0.4C30,32,29.7,31.4,27.9,31.4z M21.9,30.5c3.7,0,7.5,0.2,8,0.8
	H30v-2c0-0.6-3.9-0.9-8-0.9s-8,0.3-8,0.9v2c0,0,0,0.1,0.1,0C14.4,30.7,18.2,30.5,21.9,30.5z M18.6,21.3l-0.4-0.1l0,0L17.7,21
	c0,0,0.3,0,0.4,0l0,0c-0.2-0.2-0.3-0.3-0.3-0.3s0.2,0.1,0.4,0.2l0,0c-0.1-0.2-0.3-0.4-0.3-0.4s0.4,0.2,0.4,0.3l0,0
	c-0.1-0.2-0.2-0.5-0.2-0.5l0.4,0.4l0,0c0-0.2-0.1-0.5-0.1-0.5l0.3,0.4l0,0c0-0.1,0-0.4,0-0.4s0.1,0.3,0.2,0.4l0,0l0.1-0.4v0.5h-0.1
	l-0.1,0.6c0.6-0.1,1.3-1.1,1.8-1.1c0.6,0,0.9,0.7,2,0.4c0.3,0.4,0.4,0.8,0.5,1.3c0.5,0.4,1.1,0.3,1.1-0.2c0-0.6-0.7-0.7-0.7-1.4
	c0-0.3,0.2-0.7,0.7-0.7c0.3,0,0.7,0.1,1,0.1s0.4-0.2,0.4-0.3c0-0.1,0.1,0,0.1,0c0,0.1,0,0.1,0,0.3c0,0.4-0.6,0.5-0.7,0.4
	c0,0-0.1,0,0,0c0.1,0.1,0.1,0.3,0,0.5l0,0c-0.1-0.3-0.4-0.6-0.7-0.6c-0.1,0-0.3,0.1-0.3,0.3c0,0.4,0.7,0.7,0.7,1.4
	c0,0.8-0.8,1-1.5,0.8c0,0.7,1.1,1.2,1.1,0.6l0,0c0.2,0.2,0.1,0.4-0.1,0.5c0.2,0.1,0.2,0.5,0.3,0.7c0.1,0.4,0.4,0.2,0.5,0.1l0,0
	c-0.1,0.4-0.5,0.2-0.5,0.2c-0.2,0.1,0,0.3,0.2,0.3l0,0c-0.1,0-0.4,0.1-0.5-0.1C24.1,25,23.9,25,23.8,25s-0.2,0.1-0.2,0.3l0,0
	c-0.3-0.2-0.1-0.5,0-0.6c0,0-0.3-0.1-0.4,0.2l0,0c-0.1-0.4,0.2-0.5,0.4-0.4c0-0.1-0.1-0.3-0.4-0.2l0,0c0.1-0.1,0.2-0.3,0.5-0.1
	c0.1,0.1,0.4,0,0.4-0.1c-0.5-1-1.4-0.2-1.7-0.9l0,0c-0.1,0.2-0.5,0.2-0.5-0.1l0,0c0.1,0.1,0.2,0.1,0.4-0.1c0.1-0.2,0.1-0.4,0.1-0.5
	c0-0.6-0.6-1.6-1.5-1.6c-0.6,0-1.2,0.2-1.7,0.6l0.4,0.1c0,0.4-0.5,0.7-0.9,0.6l0.1-0.5c-0.1,0-0.2,0.1-0.3,0.2l0,0
	C18.4,21.6,18.7,21.5,18.6,21.3L18.6,21.3c-0.1,0.1-0.2,0.2-0.3,0.3l0,0C18.5,21.5,18.5,21.4,18.6,21.3z M19.9,24.7
	c-0.2,0.2-0.3,0-0.5,0s-0.2,0.2-0.2,0.2l0,0c-0.2-0.3,0-0.5,0.2-0.5c0,0-0.3-0.2-0.4,0l0,0c0-0.4,0.3-0.4,0.5-0.3
	c0-0.2-0.1-0.3-0.2-0.3l0,0c0.1-0.1,0.1-0.1,0.2-0.1c0.2,0,0.3,0.3,0.4,0.3c0.2,0,0.5-0.3,0.5-0.3s-0.2-0.6-0.2-0.9l0,0
	c-0.1,0.1-0.4,0.1-0.4-0.3l0,0c0.1,0.2,0.3,0,0.4-0.1s0.6-0.9,1.4-0.9c0.2,0,0.4,0.1,0.5,0.2c-0.3,0.3,0,0.6,0.2,0.6l0,0
	c-1,0.4-1.4,0.5-1.4,1.3c0,0.4,0.1,0.7,0.4,0.6l0,0c-0.1,0.1-0.2,0.1-0.3,0.1c-0.2,0-0.2-0.1-0.3-0.1c-0.1,0-0.5,0.2-0.5,0.4
	c0,0.1,0,0.2,0.2,0.2l0,0C20.2,24.9,19.9,25,19.9,24.7z M22.4,16.9c-0.3,0-0.5,0-0.5,0.1C22.1,17.2,22.2,17.2,22.4,16.9z M21.3,17.6
	c0.2-0.1,0.4,0,0.5,0v0.1c-0.4,0.1-0.5,0.3-0.7,0.3s-0.4-0.2-0.3-0.5l0,0C20.8,17.6,20.9,17.7,21.3,17.6z M15.5,27.4
	c0.3,0.4,0.6,0,1,0c0.2,0,0.4,0.1,0.5,0.4l0,0c0.4-0.6-0.1-0.9-0.3-0.9c0.1-0.1,0.5-0.3,0.7,0.1l0,0c0-0.7-0.5-0.8-0.9-0.5
	c-0.1-0.3,0.1-0.5,0.4-0.5l0,0c-0.5-0.5-0.8,0.1-0.9,0.2c-0.2,0.3-0.9-0.2-1.2-0.5c0,0,0.6-0.6,0.6-1.2v-0.1l0,0
	c0.1,0,0.1,0.1,0.2,0.1c0.1,0,0.4,0,0.4-0.5l0,0c0,0-0.1,0-0.1,0c-0.5,0-1.5-1.6-2.7-1.6c-0.3,0-0.9,0.2-1.2,0.6
	c0.1,0.1,0.2,0.3,0.2,0.4c0,0.2-0.2,0.3-0.4,0.4l0,0c0.6,0.2,1.7,0.7,2,0.9c0.3,0.3,0.2,0.7,0.1,1.4c-0.2,0.6-0.5,0.6-0.7,0.5l0,0
	c0.2,0.2,0.4,0.3,0.5,0.3c0.3,0,0.4-0.2,0.6-0.2c0.3,0,0.9,0.4,0.9,0.7c0,0.2-0.1,0.3-0.3,0.4l0,0C14.9,27.9,15.4,27.9,15.5,27.4z
	 M29,27.8L29,27.8c-0.2-0.1-0.3-0.3-0.3-0.5c0-0.3,0.6-0.7,0.9-0.7c0.2,0,0.3,0.2,0.6,0.2c0.2,0,0.4-0.1,0.5-0.3l0,0
	c-0.1,0-0.5,0.1-0.7-0.5c-0.2-0.7-0.2-1.2,0.1-1.4c0.3-0.2,1.4-0.6,2-0.9l0,0c-0.2,0-0.3-0.2-0.4-0.4c0-0.1,0-0.3,0.2-0.4
	c-0.3-0.3-0.9-0.6-1.2-0.6c-1.2,0-2.2,1.6-2.7,1.6c-0.1,0-0.1,0-0.2-0.1l0,0c0,0.5,0.3,0.5,0.4,0.5s0.2,0,0.2-0.1l0,0v0.1
	c0,0.6,0.6,1.2,0.6,1.2c-0.3,0.3-1,0.8-1.2,0.5c-0.1-0.1-0.4-0.8-0.9-0.2l0,0c0.3,0,0.5,0.2,0.4,0.5c-0.4-0.3-0.9-0.3-0.9,0.5l0,0
	c0.3-0.4,0.7-0.1,0.7-0.1c-0.3,0-0.7,0.4-0.3,0.9l0,0c0-0.4,0.3-0.4,0.5-0.4c0.4,0,0.7,0.4,1,0C28.3,27.9,28.8,27.9,29,27.8z
	 M19.1,18.4c0,0.1-0.2,0-0.2,0l0,0c0,0.1,0.2,0.3,0.3,0.3c0.1,0,0.2,0,0.2-0.1c0,0,0.7,0.2,1.1,0.3c-0.1,0.2-0.2,0.4-0.2,0.6
	c-0.3-0.2-1.4-0.8-1.4-0.8l-0.4,0.5c-0.1,0.1-0.3-0.1-0.3-0.2l0.3-0.4c-0.1-0.1-0.3,0-0.4,0l0,0c0-0.1,0.2-0.3,0.5-0.2
	c0-0.2-0.3-0.1-0.4-0.1l0,0c0.1-0.1,0.3-0.3,0.6-0.1L19,18l-0.2-0.3l0.2-0.2l0.2,0.2l1.3-1.8c0,0,0.3-0.1,0.4-0.1c0,0.1,0,0.4,0,0.4
	L19.5,18l0.3,0.1l-0.2,0.2l-0.3-0.2L19.1,18.4z M23.8,18.1c0,0.2,0.1,0.4,0.3,0.3l0,0c0,0.2-0.4,0.4-0.5,0.1
	c-0.1,0.3-0.1,0.5,0.2,0.7l0,0c-0.2,0.1-0.4,0.1-0.6-0.1c-0.2,0.2-0.2,0.6-0.1,0.7c0,0-0.7,0.4-1.2,0.1c-0.4-0.2-0.7-0.4-1.2-0.4
	c0.1-0.7,0.4-0.9,1.1-1c0.5-0.1,0.6-0.3,0.5-0.5c-0.2,0-0.5,0.1-0.5,0.1c-0.1-0.1,0-0.2,0-0.2v-0.2c0.4,0,0.4-0.1,0.4-0.1
	c0.1-0.4-0.3-0.4-0.6-0.2c-0.1-0.1-0.1-0.3-0.1-0.3L21.4,17c0-0.1,0.4-0.3,0.5-0.4c0-0.1,0.2-0.3,0.6-0.3c0.1-0.1,0-0.6-0.1-0.7
	c0,0,0-0.1,0,0c0.2,0.1,0.3,0.5,0.4,0.5l0.5-0.3l0.1,0.6c0.1,0.1,0.5,0,0.6,0.1v0.1c-0.1,0-0.5,0.2-0.6,0.3
	C23.9,17.4,23.8,17.9,23.8,18.1z"/>
<polyline class="st0" points="0,65.8 0,-7.3 314,-52.3 "/>
<text transform="matrix(1 0 0 1 47.3335 31.2988)" class="st1 st3 st4">Rijksoverheid</text>
</svg>
