<?xml version="1.0" encoding="utf-8"?>
<!-- Generator: Adobe Illustrator 21.1.0, SVG Export Plug-In . SVG Version: 6.00 Build 0)  -->
<svg version="1.1" id="Laag_1" xmlns="http://www.w3.org/2000/svg" xmlns:xlink="http://www.w3.org/1999/xlink" x="0px" y="0px"
	 width="223.3px" height="58px" viewBox="0 0 223.3 58" style="enable-background:new 0 0 223.3 58;" xml:space="preserve">
<style type="text/css">
	.st0{fill:#154273;}
	.st1{fill:#FFFFFF;}
	.st2{fill:none;}
	.st3{font-family:'RijksoverheidSerifWeb-Regular';}
	.st4{font-size:22.54px;}
</style>
<title>een-overheid</title>
<rect y="0.1" class="st0" width="62" height="57.8"/>
<path class="st1" d="M31.7,37.8h-1v-2.5h1V37.8z M35.9,26.4h-1v-2.5h1V26.4z M18.6,22.1c-0.1,0-0.6,0-0.6,0.1c0,0.1,0.3,0,0.6,0.1
	c0.7,0.1,1,0.6,1.5,0.6c0.4,0,1-0.3,0.7-1c0-0.1-0.1-0.1-0.1,0c-0.1,0.3-0.4,0.4-0.8,0.4C19.6,22.2,19.4,22.1,18.6,22.1z M13.5,24.6
	c0.1,0.1,1,1.3-0.4,1.7c0,0-0.1,0.1,0,0.1c1,0.4,1.6-0.4,1.6-0.4c0.6,1.1-0.3,1.8-0.3,1.8c0.1,0.1,0.6,0.6,1.3,0.7
	c0.3-0.1,0.7-0.4,0.8-0.8c0,0,0.1,0.6,0,1c2,0.1,2.8-1.4,4.4-1.1l0,0c0-1-0.6-2.8-2.5-3.2c-2-0.4-1.4-1.1-1.4-1.1
	c0.8,0,1.3,0.3,1.3,0.3c0.1-0.3,0-0.6,0-0.6c0.1-0.1,0.1-0.4,0.1-0.4c-1,0-1.1-0.1-1.1-0.1c-0.1-0.6,0.3-1.3,1.6-0.6
	c0.3-0.3,0.3-0.7,0.3-0.7c0.1,0,0.1-0.3,0.1-0.3c0-0.3-1.1-0.8-1.4-0.8c0-0.3-0.6-0.8-1.8-0.6c-0.6,0.1-1-0.1-0.8-0.4
	c0,0-0.1-0.1-0.1,0c-0.1,0.1-0.3,0.6,0.1,0.8c0.6,0.3,0.6,0.8,0.6,1c0,0.1-0.1,0.1-0.1,0c-0.3-1-1.7-1.3-2.4-0.7
	c0,0.6,0.6,0.8,1,0.8c0.1,0,0.4-0.1,0.4-0.4c0-0.1,0-0.1,0.1,0c0.1,0.4-0.4,1.1-1.1,0.7c-0.8,0.8-0.4,1.8-0.4,2.1
	c0.1,0.7-0.1,1.3-0.7,1l0,0C12.4,24.4,13,25,13.5,24.6z M17.9,20.6c-0.4,0.4-1,0.3-1.1-0.4C17.6,20.2,17.9,20.2,17.9,20.6z
	 M41.6,22.2c-0.4,0-0.7-0.1-0.8-0.4c0-0.1-0.1-0.1-0.1,0c-0.1,0.7,0.3,1,0.7,1c0.6,0,0.8-0.4,1.6-0.6c0.3,0,0.6,0,0.6-0.1
	c0-0.1-0.4-0.1-0.6-0.1C42.1,22.1,42.1,22.2,41.6,22.2z M49.3,24C49.3,24,49.2,24,49.3,24c-0.7,0.3-1-0.4-0.8-1
	c0.1-0.4,0.4-1.4-0.4-2.1c-0.8,0.4-1.3-0.3-1.1-0.7c0-0.1,0.1-0.1,0.1,0c0,0.3,0.3,0.4,0.4,0.4c0.3,0,0.8-0.4,1-0.8
	c-0.8-0.6-2.1-0.3-2.4,0.7c0,0.1-0.1,0.1-0.1,0c0-0.1,0-0.7,0.6-1c0.6-0.3,0.3-0.7,0.1-0.8h-0.1c0.1,0.4-0.3,0.6-0.8,0.4
	c-1.3-0.1-1.7,0.3-1.8,0.6c-0.3,0.1-1.4,0.7-1.4,0.8c0,0,0,0.3,0.1,0.3c0,0,0,0.4,0.3,0.7c1.4-0.8,1.7,0,1.6,0.6
	c0,0-0.3,0.1-1.1,0.1c0,0,0,0.3,0.1,0.4c0,0-0.3,0.3,0,0.6c0,0,0.4-0.4,1.3-0.3c0,0,0.6,0.8-1.4,1.1c-2,0.3-2.5,2.3-2.5,3.2
	c0,0,0,0.1,0,0c1.5-0.3,2.3,1.4,4.4,1.1c-0.1-0.4,0-1,0-1c0.1,0.4,0.6,0.7,0.8,0.8c0.7-0.1,1.3-0.6,1.3-0.7c0,0-0.7-0.6-0.3-1.8
	c0,0,0.4,0.7,1.5,0.4c0.1,0,0-0.1,0-0.1c-1.4-0.4-0.4-1.5-0.4-1.7C48.8,25,49.3,24.4,49.3,24z M44.8,20.2c-0.1,0.7-0.7,0.8-1.1,0.4
	C43.8,20.2,44.1,20.2,44.8,20.2z M30.4,8.8c0,0.1,0.1,0.3,0.1,0.4c0.1,0.1,0.1,0.3,0,0.3c0,0-0.1,0.1-0.3,0c-0.1,0-0.3-0.1-0.4-0.1
	c-0.3,0-0.4,0.1-0.4,0.4c0,0.1,0.1,0.4,0.4,0.4c0.1,0,0.3-0.1,0.4-0.1c0.1-0.1,0.3-0.1,0.3,0c0,0,0,0.7-0.1,1.1
	c-0.4,0.1-0.7,0.6-0.7,0.7c0,0.6,0.6,1,1,1.1c0.4-0.1,1-0.6,1-1.1c0-0.3-0.3-0.6-0.7-0.7c0-0.7,0-1.3,0-1.4c0,0,0.1-0.1,0.3,0
	c0.1,0,0.3,0.1,0.4,0.1c0.3,0,0.4-0.1,0.4-0.4c0-0.1-0.1-0.4-0.4-0.4c-0.1,0-0.3,0.1-0.4,0.1c-0.1,0.1-0.3,0.1-0.3,0
	c0,0-0.1-0.1,0-0.3c0-0.1,0.1-0.3,0.1-0.4c0-0.3-0.1-0.4-0.4-0.4C30.7,8.2,30.4,8.5,30.4,8.8z M30.9,13.2c-0.4,0-0.7,0.3-0.7,0.7
	s0.3,0.7,0.7,0.7c0.4,0,0.7-0.3,0.7-0.7S31.3,13.2,30.9,13.2z M30.9,19.9c2.8,0,4.5,0.6,4.5,0.6c0-1.4,0-2.3,0.8-2.1
	c-0.4-1.3,1.5-1.7,1.5-3.2c0-1-0.7-1.1-1-1.1c-0.7,0-0.6,0.4-1.1,0.4h-0.1c0,0.1,0.1,0.6,0.4,0.6s0.3-0.3,0.6-0.3
	c0.1,0,0.3,0.1,0.3,0.4c0,0.7-0.4,1.4-1,2c-0.1-0.1-0.3-0.3-0.4-0.3c-0.3,0-0.6,0.3-0.6,0.7c0,0.1,0,0.3,0.1,0.4
	c-0.1,0.1-0.3,0.1-0.4,0.1c-0.3,0-0.6-0.1-0.6-0.6c0-1.1,1.5-2.1,1.5-3.7c0-0.7-0.4-1.4-1.4-1.4c-1,0-0.8,1-1.7,1h-0.1
	c0,0,0.1,0.6,0.6,0.6c0.6,0,0.6-0.8,1.1-0.8c0.1,0,0.4,0.1,0.4,0.7c0,0.4-0.3,1.1-0.6,1.8c-0.1-0.1-0.3-0.1-0.4-0.1
	c-0.4,0-0.7,0.4-0.7,0.8c0,0.3,0.1,0.6,0.3,0.7c-0.3,0.3-0.4,0.6-0.7,0.6c-0.6,0-0.8-0.4-0.8-0.7c0-0.4,0.7-0.6,0.7-1.3
	c0-0.4-0.3-0.7-0.6-0.7c-0.3,0-0.4,0.1-0.4,0.1S31,15,30.7,15c-0.3,0-0.6,0.3-0.6,0.7c0,0.7,0.7,0.8,0.7,1.3c0,0.4-0.3,0.7-0.8,0.7
	c-0.3,0-0.6-0.3-0.7-0.6c0.1-0.1,0.3-0.4,0.3-0.7c0-0.4-0.3-0.8-0.7-0.8c-0.1,0-0.3,0.1-0.4,0.1c-0.3-0.7-0.6-1.4-0.6-1.8
	c0-0.6,0.3-0.7,0.4-0.7c0.4,0,0.6,0.8,1.1,0.8c0.4,0,0.6-0.6,0.6-0.6s0,0-0.1,0c-0.8,0-0.7-1-1.7-1c-1,0-1.4,0.7-1.4,1.4
	c0,1.4,1.6,2.5,1.6,3.7c0,0.6-0.4,0.6-0.6,0.6s-0.3,0-0.4-0.1c0-0.1,0.1-0.3,0.1-0.4c0-0.4-0.3-0.7-0.6-0.7c-0.1,0-0.4,0.1-0.4,0.3
	c-0.6-0.6-1-1.3-1-2c0-0.3,0.1-0.4,0.3-0.4c0.3,0,0.3,0.3,0.6,0.3c0.3,0,0.4-0.3,0.4-0.6h-0.1c-0.6,0-0.4-0.4-1.1-0.4
	c-0.3,0-1,0.1-1,1.1c0,1.6,2,2.1,1.6,3.2c0.8-0.1,0.8,0.7,0.8,2.1C26.4,20.5,27.9,19.9,30.9,19.9z M25.5,22.2
	c-0.8,0.1-1.4,0.3-1.5,0.4c0-0.3,0.1-0.7,0.4-0.7c0,0,0,0,0-0.1c-0.7-0.4-1.1,0.4-1.1,0.4c-0.3,0-0.6,0-0.6,0.4c0,1-2.3,1.5-2.8,1.7
	c1,0.4,1.3,1.6,1.3,1.6c0.7-0.7,1.4-1.3,1.7-1.3c0.1,0,0.3,0.3,0.3,0.4c0,0,0,0,0.1,0c0.4-0.6,0.1-0.7,0.1-0.8c0-0.1,0-0.6,0.6-0.6
	v6.5h-0.3c-0.1,0-1.1-0.8-2.3-1.6c-1.1-0.7-1.7-0.3-3,0.4c-1.7,0.8-3.4,0.1-3.4,0.1c-1.4,1-2,3.9-2,3.9c-0.3,0.1-0.7,0.3-1.3,0.3
	c-1.1,0-1.3-0.7-1.3-1c0-1.7,2.1-2.4,2.1-4.1c0-0.4-0.1-2-2.3-2c-0.3,0-1.8,0-1.8,0c-0.7,0-1-0.6-1-0.7s-0.1,0-0.1,0
	c0,0.1-0.1,0.4-0.1,0.7c0,0.7,0.4,1.1,1.1,1.1c0.3,0,0.7-0.1,0.7-0.1h0.1C9,27.7,9,28.4,9,28.5h0.1c0.1-0.7,0.8-1.4,1.7-1.4
	c1.1,0,1.1,1,1.1,1.1c0,1.4-2.4,2.4-2.4,4.2c0,1.8,2,2.3,3.1,2c0,1.8-2.3,2.5-2.3,1.1c0,0,0-0.1-0.1,0C10,36.3,10.1,36.8,11,37
	c0,0,0,0,0,0.1c-0.8,0.6-0.4,2.7-0.3,3.2c0,0.8-0.8,0.7-0.8,0.7s-0.1,0,0,0.1c0.6,0.7,1.4,0,1.4,0c0.7,0.1,0.4,0.7,0,1v0.1
	c0.1,0,1,0.1,1.1-0.6c0.4,0.4,1,0.3,1.1,0.3c0.1-0.1,1-0.4,1.1,0.6c0,0,0,0,0.1,0c0.6-0.8,0-1.3-0.4-1.4c0,0,0.6-0.4,1,0.1l0,0
	c0-1-0.7-1.1-1.3-0.7c0-0.1-0.1-0.7,0.6-0.7l0,0c-0.6-0.7-1.1,0-1.3,0.1c-0.3,0.3-1,0.1-1,0.1c0.3-3.5,3.4-2.3,3.8-3.9
	c0-0.1,0,0,0,0c0.1,0.4,1.1,0.4,1.4-0.3c0,0,0-0.1,0,0c-0.8,0.8-3-2-0.1-4.2c2.4-2,4.5-0.8,5.2-0.3c0,0.3-0.1,0.4-0.3,0.4
	c0,0,0,0,0,0.1c0.3,0.1,0.6,0,0.7-0.1c0.6,0.4,0.1,0.8-0.1,1c0,0,0,0,0,0.1c0.4,0.1,0.8-0.4,0.8-0.7H24v2c0,2.8,3.2,3.2,6.9,5.6
	c3.7-2.4,6.9-2.8,6.9-5.6v-2h0.1c0,0.3,0.4,0.7,0.8,0.7c0,0,0,0,0-0.1c-0.1-0.1-0.7-0.6-0.1-1c0.1,0.3,0.4,0.3,0.7,0.1
	c0,0,0,0,0-0.1c-0.1,0-0.3-0.1-0.3-0.4c0.8-0.7,3-1.7,5.2,0.3c2.8,2.3,0.7,5.1-0.1,4.2l0,0c0.1,0.8,1.3,0.7,1.4,0.3l0,0
	c0.4,1.7,3.5,0.4,3.8,3.9c0,0-0.7,0.1-1-0.1c-0.1-0.1-0.6-0.7-1.3-0.1l0,0c0.8,0,0.6,0.6,0.6,0.7c-0.6-0.4-1.4-0.4-1.3,0.7
	c0,0.1,0,0.1,0,0c0.4-0.6,1-0.1,1-0.1c-0.4,0-1.1,0.6-0.4,1.4c0,0,0,0.1,0.1,0c0.1-1,1-0.7,1.1-0.6c0.1,0,0.7,0.3,1.1-0.3
	c0.1,0.7,1.1,0.7,1.1,0.6c0,0,0,0,0-0.1c-0.4-0.3-0.7-0.7-0.1-1c0,0,0.7,0.7,1.4,0v-0.1c-0.1,0-1,0.1-0.8-0.7c0-0.6,0.6-2.7-0.3-3.2
	c0,0-0.1,0,0-0.1c0.8-0.1,1-0.7,0.7-1.4c0-0.1-0.1,0-0.1,0c0,1.4-2.3,0.7-2.3-1.1c1.1,0.3,3.1-0.1,3.1-2s-2.4-2.8-2.4-4.2
	c0-0.3,0-1.1,1.1-1.1c0.8,0,1.5,0.7,1.7,1.4c0,0,0,0,0.1,0c0.1-0.1,0.1-0.8-0.3-1.3c0,0,0-0.1,0.1,0c0.1,0,0.4,0.1,0.7,0.1
	c0.7,0,1.1-0.4,1.1-1.1c0-0.4-0.1-0.6-0.1-0.7c0,0,0-0.1-0.1,0c-0.1,0.3-0.3,0.7-1,0.7c0,0-1.5,0-1.8,0c-2,0-2.3,1.7-2.3,2
	c0,1.7,2.1,2.4,2.1,4.1c0,0.4-0.1,1-1.3,1c-0.4,0-1-0.1-1.3-0.3c0,0-0.4-3-2-3.9c0,0-1.7,0.8-3.4-0.1c-1.3-0.7-1.8-1.1-3-0.4
	s-2.1,1.6-2.3,1.6h-0.3v-6.6c0.6,0,0.6,0.4,0.6,0.6s-0.1,0.3,0.1,0.8c0,0,0,0,0.1,0c0-0.1,0.1-0.4,0.3-0.4s1,0.6,1.7,1.3
	c0,0,0.4-1.1,1.3-1.6c-0.6-0.1-2.8-0.6-2.8-1.7c0-0.3-0.4-0.4-0.6-0.4c0,0-0.4-0.8-1.1-0.4v0.1c0.3,0.1,0.4,0.4,0.4,0.7
	c-0.7-0.1-3.5-1-6.9-1c-1.7,0-3.1,0.1-4.4,0.4v2.3h-1L25.5,22.2L25.5,22.2 M19.4,45.7c-0.3-0.1-0.4-0.3-0.4-0.6v-1.4
	c-0.4-0.1-1.6-0.6-3.8-0.6c-1.8,0-2.4,0.4-2.5,0.6l-0.6,2.7c0,0,0.7-0.7,3.4-0.6c3.2,0.1,6.6,2.1,6.6,0.1v-1.3
	C19.7,44.7,19.4,45.6,19.4,45.7z M39.3,44.7V46c0,2,3.4,0.1,6.6-0.1c2.7-0.1,3.4,0.6,3.4,0.6l-0.6-2.7c0-0.1-0.6-0.6-2.5-0.6
	c-2.3,0-3.4,0.4-3.8,0.6v1.4c0,0.3-0.1,0.4-0.4,0.6C42.3,45.6,41.9,44.7,39.3,44.7z M30.9,43.5c5.2,0,10.6,0.3,11.3,1.1h0.1v-2.8
	c0-0.8-5.5-1.3-11.3-1.3s-11.3,0.4-11.3,1.3v2.8c0,0,0,0.1,0.1,0C20.3,43.8,25.6,43.5,30.9,43.5z M26.2,30.5l-0.6-0.1l0,0l-0.7-0.3
	c0,0,0.4,0,0.6,0l0,0c-0.3-0.3-0.4-0.4-0.4-0.4s0.3,0.1,0.6,0.3l0,0c-0.1-0.3-0.4-0.6-0.4-0.6s0.6,0.3,0.6,0.4l0,0
	c-0.1-0.3-0.3-0.7-0.3-0.7l0.6,0.6l0,0c0-0.3-0.1-0.7-0.1-0.7l0.4,0.6l0,0c0-0.1,0-0.6,0-0.6s0.1,0.4,0.3,0.6l0,0l0.1-0.6v0.7h-0.1
	l-0.1,0.8c0.8-0.1,1.8-1.6,2.5-1.6c0.8,0,1.3,1,2.8,0.6c0.4,0.6,0.6,1.1,0.7,1.8c0.7,0.6,1.5,0.4,1.5-0.3c0-0.8-1-1-1-2
	c0-0.4,0.3-1,1-1c0.4,0,1,0.1,1.4,0.1s0.6-0.3,0.6-0.4c0-0.1,0.1,0,0.1,0c0,0.1,0,0.1,0,0.4c0,0.6-0.8,0.7-1,0.6c0,0-0.1,0,0,0
	c0.1,0.1,0.1,0.4,0,0.7l0,0c-0.1-0.4-0.6-0.8-1-0.8c-0.1,0-0.4,0.1-0.4,0.4c0,0.6,1,1,1,2c0,1.1-1.1,1.4-2.1,1.1
	c0,1,1.6,1.7,1.6,0.8l0,0c0.3,0.3,0.1,0.6-0.1,0.7c0.3,0.1,0.3,0.7,0.4,1c0.1,0.6,0.6,0.3,0.7,0.1l0,0c-0.1,0.6-0.7,0.3-0.7,0.3
	c-0.3,0.1,0,0.4,0.3,0.4l0,0c-0.1,0-0.6,0.1-0.7-0.1c-0.1,0.3-0.4,0.3-0.6,0.3c-0.1,0-0.3,0.1-0.3,0.4l0,0c-0.4-0.3-0.1-0.7,0-0.8
	c0,0-0.4-0.1-0.6,0.3l0,0C32.5,35,33,34.9,33.3,35c0-0.1-0.1-0.4-0.6-0.3l0,0c0.1-0.1,0.3-0.4,0.7-0.1c0.1,0.1,0.6,0,0.6-0.1
	c-0.7-1.4-2-0.3-2.4-1.3l0,0c-0.1,0.3-0.7,0.3-0.7-0.1l0,0c0.1,0.1,0.3,0.1,0.6-0.1c0.1-0.3,0.1-0.6,0.1-0.7c0-0.8-0.8-2.3-2.1-2.3
	c-0.8,0-1.7,0.3-2.4,0.8l0.6,0.1c0,0.6-0.7,1-1.3,0.8l0.1-0.7c-0.1,0-0.3,0.1-0.4,0.3l0,0c-0.1-0.4,0.3-0.6,0.3-0.7l0,0
	c-0.3,0-0.4,0.1-0.6,0.3l0,0C26.1,30.8,26.1,30.6,26.2,30.5z M28,35.3c-0.3,0.3-0.4,0-0.7,0c-0.3,0-0.3,0.3-0.3,0.3l0,0
	c-0.3-0.4,0-0.7,0.3-0.7c0,0-0.4-0.3-0.6,0l0,0c0-0.6,0.4-0.6,0.7-0.4c0-0.3-0.1-0.4-0.3-0.4l0,0c0.1-0.1,0.1-0.1,0.3-0.1
	c0.3,0,0.4,0.4,0.6,0.4c0.3,0,0.7-0.4,0.7-0.4s-0.3-0.8-0.3-1.3l0,0c-0.1,0.1-0.6,0.1-0.6-0.4l0,0c0.1,0.3,0.4,0,0.6-0.1
	c0.1-0.1,0.8-1.3,2-1.3c0.3,0,0.6,0.1,0.7,0.3c-0.4,0.4,0,0.8,0.3,0.8l0,0c-1.4,0.6-2,0.7-2,1.8c0,0.6,0.1,1,0.6,0.8l0,0
	c-0.1,0.1-0.3,0.1-0.4,0.1c-0.3,0-0.3-0.1-0.4-0.1c-0.1,0-0.7,0.3-0.7,0.6c0,0.1,0,0.3,0.3,0.3l0,0C28.5,35.6,28,35.7,28,35.3z
	 M31.6,24.3c-0.4,0-0.7,0-0.7,0.1C31.1,24.7,31.3,24.7,31.6,24.3z M30,25.3c0.3-0.1,0.6,0,0.7,0v0.1c-0.6,0.1-0.7,0.4-1,0.4
	c-0.3,0-0.6-0.3-0.4-0.7l0,0C29.3,25.3,29.4,25.4,30,25.3z M21.8,39.1c0.4,0.6,0.8,0,1.4,0c0.3,0,0.6,0.1,0.7,0.6l0,0
	c0.6-0.8-0.1-1.3-0.4-1.3c0.1-0.1,0.7-0.4,1,0.1l0,0c0-1-0.7-1.1-1.3-0.7c-0.1-0.4,0.1-0.7,0.6-0.7l0,0c-0.7-0.7-1.1,0.1-1.3,0.3
	c-0.3,0.4-1.3-0.3-1.7-0.7c0,0,0.8-0.8,0.8-1.7v-0.1l0,0c0.1,0,0.1,0.1,0.3,0.1c0.1,0,0.6,0,0.6-0.7l0,0c0,0-0.1,0-0.1,0
	c-0.7,0-2.1-2.3-3.8-2.3c-0.4,0-1.3,0.3-1.7,0.8c0.1,0.1,0.3,0.4,0.3,0.6c0,0.3-0.3,0.4-0.6,0.6l0,0c0.8,0.3,2.4,1,2.8,1.3
	c0.4,0.4,0.3,1,0.1,2c-0.3,0.8-0.7,0.8-1,0.7l0,0c0.3,0.3,0.6,0.4,0.7,0.4c0.4,0,0.6-0.3,0.8-0.3c0.4,0,1.3,0.6,1.3,1
	c0,0.3-0.1,0.4-0.4,0.6l0,0C21,39.8,21.7,39.8,21.8,39.1z M40.9,39.7L40.9,39.7c-0.3-0.1-0.4-0.4-0.4-0.7c0-0.4,0.8-1,1.3-1
	c0.3,0,0.4,0.3,0.8,0.3c0.3,0,0.6-0.1,0.7-0.4l0,0c-0.1,0-0.7,0.1-1-0.7c-0.3-1-0.3-1.7,0.1-2c0.4-0.3,2-0.8,2.8-1.3l0,0
	c-0.3,0-0.4-0.3-0.6-0.6c0-0.1,0-0.4,0.3-0.6c-0.4-0.4-1.3-0.8-1.7-0.8c-1.7,0-3.1,2.3-3.8,2.3c-0.1,0-0.1,0-0.3-0.1l0,0
	c0,0.7,0.4,0.7,0.6,0.7c0.1,0,0.3,0,0.3-0.1l0,0v0.1c0,0.8,0.8,1.7,0.8,1.7c-0.4,0.4-1.4,1.1-1.7,0.7C39,37,38.6,36,37.9,36.8l0,0
	c0.4,0,0.7,0.3,0.6,0.7c-0.6-0.4-1.3-0.4-1.3,0.7l0,0c0.4-0.6,1-0.1,1-0.1c-0.4,0-1,0.6-0.4,1.3l0,0c0-0.6,0.4-0.6,0.7-0.6
	c0.6,0,1,0.6,1.4,0C39.9,39.8,40.6,39.8,40.9,39.7z M26.9,26.4c0,0.1-0.3,0-0.3,0l0,0c0,0.1,0.3,0.4,0.4,0.4c0.1,0,0.3,0,0.3-0.1
	c0,0,1,0.3,1.6,0.4c-0.1,0.3-0.3,0.6-0.3,0.8c-0.4-0.3-2-1.1-2-1.1l-0.6,0.7c-0.1,0.1-0.4-0.1-0.4-0.3l0.4-0.6c-0.1-0.1-0.4,0-0.6,0
	l0,0c0-0.1,0.3-0.4,0.7-0.3c0-0.3-0.4-0.1-0.6-0.1l0,0c0.1-0.1,0.4-0.4,0.8-0.1l0.3-0.3l-0.3-0.4l0.3-0.3l0.3,0.3l1.8-2.5
	c0,0,0.4-0.1,0.6-0.1c0,0.1,0,0.6,0,0.6l-2,2.5l0.4,0.1l-0.3,0.3L27.2,26L26.9,26.4z M33.5,26c0,0.3,0.1,0.6,0.4,0.4l0,0
	c0,0.3-0.6,0.6-0.7,0.1c-0.1,0.4-0.1,0.7,0.3,1l0,0c-0.3,0.1-0.6,0.1-0.8-0.1c-0.3,0.3-0.3,0.8-0.1,1c0,0-1,0.6-1.7,0.1
	c-0.6-0.3-1-0.6-1.7-0.6c0.1-1,0.6-1.3,1.6-1.4c0.7-0.1,0.8-0.4,0.7-0.7c-0.3,0-0.7,0.1-0.7,0.1c-0.1-0.1,0-0.3,0-0.3v-0.3
	c0.6,0,0.6-0.1,0.6-0.1c0.1-0.6-0.4-0.6-0.8-0.3c-0.1-0.1-0.1-0.4-0.1-0.4l-0.1-0.1c0-0.1,0.6-0.4,0.7-0.6c0-0.1,0.3-0.4,0.8-0.4
	c0.1-0.1,0-0.8-0.1-1c0,0,0-0.1,0,0c0.3,0.1,0.4,0.7,0.6,0.7l0.7-0.4l0.1,0.8c0.1,0.1,0.7,0,0.8,0.1v0.1c-0.1,0-0.7,0.3-0.8,0.4
	C33.7,25,33.5,25.7,33.5,26z"/>
<path class="st2" d="M321-42.3"/>
<text transform="matrix(1 0 0 1 68.2495 38.001)" class="st0 st3 st4">Rijksoverheid.nl</text>
</svg>
