<svg id="Laag_1" data-name="Laag 1" xmlns="http://www.w3.org/2000/svg" width="233" height="40" viewBox="0 0 233 40"><defs><style>.cls-1{fill:#FFFFFF;}</style></defs><title>een-overheid</title><g id="Laag_1-2" data-name="Laag 1"><path class="cls-1" d="M47.57,20.45q0-5.64,2.75-8.67a9.88,9.88,0,0,1,7.72-3,11.62,11.62,0,0,1,4.62.84A8.65,8.65,0,0,1,65.9,12a10.1,10.1,0,0,1,1.93,3.7,16.77,16.77,0,0,1,.64,4.79q0,5.64-2.73,8.68t-7.7,3a11.6,11.6,0,0,1-4.61-.85A8.78,8.78,0,0,1,50.17,29a10,10,0,0,1-2-3.7A16.84,16.84,0,0,1,47.57,20.45Zm5.94,0a12.76,12.76,0,0,0,.27,2.71,7.52,7.52,0,0,0,.8,2.17A3.83,3.83,0,0,0,56,26.78a4.08,4.08,0,0,0,2.06.51,3.8,3.8,0,0,0,3.37-1.64,9.44,9.44,0,0,0,1.11-5.19,10.41,10.41,0,0,0-1-5A3.61,3.61,0,0,0,58,13.63a3.91,3.91,0,0,0-3.33,1.59C53.91,16.28,53.51,18,53.51,20.45Z"/><path class="cls-1" d="M79.61,21l.75,3.41h.22l.62-3.5L85,9.36h6.21L81.91,31.77H78.4L68.78,9.36h6.7Z"/><path class="cls-1" d="M110.53,29.64a11.42,11.42,0,0,1-3.62,1.8,15.73,15.73,0,0,1-4.85.73c-3.59,0-6.2-1-7.86-3.13s-2.48-4.95-2.48-8.58c0-3.91.93-6.83,2.8-8.79S99,8.74,102.37,8.74a12,12,0,0,1,3.28.45,7.53,7.53,0,0,1,2.84,1.46,7.18,7.18,0,0,1,2,2.75,10.69,10.69,0,0,1,.75,4.3,17.71,17.71,0,0,1-.11,2q-.1,1.07-.33,2.22H97.53A6.5,6.5,0,0,0,99,26.13a5.49,5.49,0,0,0,4.22,1.42,9,9,0,0,0,3.25-.55,8.65,8.65,0,0,0,2.18-1.14ZM102.3,13.35A4,4,0,0,0,99,14.71a6.74,6.74,0,0,0-1.3,3.62h8.21a5.58,5.58,0,0,0-.73-3.69A3.25,3.25,0,0,0,102.3,13.35Z"/><path class="cls-1" d="M127.57,14.78a7.44,7.44,0,0,0-2.49-.49,4.05,4.05,0,0,0-2.59.82,4,4,0,0,0-1.4,2.11V31.55h-5.77V9.37h4.48l.67,2.92h.18a6,6,0,0,1,2-2.52,5.17,5.17,0,0,1,3-.89,8.29,8.29,0,0,1,2.62.49Z"/><path class="cls-1" d="M144.47,31.55V18.94a7.65,7.65,0,0,0-.75-3.9,3,3,0,0,0-2.75-1.2,4.16,4.16,0,0,0-2.69,1,4.74,4.74,0,0,0-1.62,2.55V31.55H130.9V.49h5.76V11.84h.18a8.13,8.13,0,0,1,2.62-2.26,8.26,8.26,0,0,1,3.95-.84,9.28,9.28,0,0,1,3,.44,4.75,4.75,0,0,1,2.15,1.47,6.55,6.55,0,0,1,1.29,2.77,18.92,18.92,0,0,1,.42,4.33v13.8Z"/><path class="cls-1" d="M172.82,29.64a11.25,11.25,0,0,1-3.61,1.8,15.84,15.84,0,0,1-4.86.73q-5.37,0-7.85-3.13C154.84,27,154,24.09,154,20.46c0-3.91.93-6.83,2.79-8.79s4.48-2.93,7.85-2.93a12.09,12.09,0,0,1,3.29.45,7.53,7.53,0,0,1,2.84,1.46,7.29,7.29,0,0,1,2,2.75,10.86,10.86,0,0,1,.75,4.3c0,.63,0,1.29-.11,2s-.19,1.45-.33,2.22H159.83a6.44,6.44,0,0,0,1.43,4.21,5.49,5.49,0,0,0,4.22,1.42,8.93,8.93,0,0,0,3.25-.55,8.74,8.74,0,0,0,2.19-1.14Zm-8.23-16.29a4,4,0,0,0-3.33,1.36,6.66,6.66,0,0,0-1.3,3.62h8.21a5.7,5.7,0,0,0-.73-3.69A3.27,3.27,0,0,0,164.59,13.35Z"/><path class="cls-1" d="M177.26,3.11a2.93,2.93,0,0,1,1-2.2A3.67,3.67,0,0,1,180.85,0a4,4,0,0,1,2.73.91,2.81,2.81,0,0,1,1,2.2,2.71,2.71,0,0,1-1,2.15,4.1,4.1,0,0,1-2.73.86,3.79,3.79,0,0,1-2.63-.86A2.79,2.79,0,0,1,177.26,3.11Zm.85,6.25h5.76V31.55h-5.76Z"/><path class="cls-1" d="M208.41,23.74c0,1.24,0,2.48,0,3.73a31.17,31.17,0,0,0,.4,4.12h-4.13l-.8-2.88h-.18a6.69,6.69,0,0,1-2.55,2.51,7.83,7.83,0,0,1-3.93,1,8,8,0,0,1-6.47-2.74q-2.31-2.76-2.31-8.61,0-5.68,2.58-8.83c1.71-2.11,4.23-3.15,7.54-3.15a13.92,13.92,0,0,1,2.26.15,9.17,9.17,0,0,1,1.78.51v-9h5.77Zm-9.81,3.55a4,4,0,0,0,2.66-.82,4.48,4.48,0,0,0,1.38-2.38v-9.4a4.36,4.36,0,0,0-1.38-.73,6.51,6.51,0,0,0-1.95-.25,4.27,4.27,0,0,0-3.66,1.64c-.81,1.1-1.22,3-1.22,5.63a9.12,9.12,0,0,0,1,4.58A3.39,3.39,0,0,0,198.6,27.29Z"/><path class="cls-1" d="M11.3,14.2V11a20.35,20.35,0,0,1,4.62-1.52,36,36,0,0,1,6.17-.57A11.65,11.65,0,0,1,23.35,9l1.16.12c-.13.69-.24,1.46-.33,2.28S24,14.2,24,15v25a20.16,20.16,0,1,0-7.45.06V13.87Z"/></g></svg>