<?xml version="1.0" encoding="utf-8"?>
<!DOCTYPE svg PUBLIC "-//W3C//DTD SVG 1.1//EN" "http://www.w3.org/Graphics/SVG/1.1/DTD/svg11.dtd">
<svg version="1.1" id="Layer_1" xmlns="http://www.w3.org/2000/svg" xmlns:xlink="http://www.w3.org/1999/xlink" x="0px" y="0px"
	 width="103.58px" height="93.025px" viewBox="0 9.025 103.58 93.025" enable-background="new 0 9.025 103.58 93.025"
	 xml:space="preserve">
<g>
	<path display="none" d="M120.076,2.541L120.076,2.541L120.076,2.541z"/>
	<path d="M100.649,94.304L55.188,14.542c-0.623-1.102-1.817-1.786-3.093-1.786c-1.276,0-2.449,0.673-3.092,1.786L3.561,94.304
		c-0.612,1.082-0.612,2.398,0.03,3.47c0.643,1.071,1.796,1.735,3.051,1.735h90.915c1.254,0,2.408-0.664,3.051-1.735
		S101.25,95.376,100.649,94.304L100.649,94.304z M57.718,89.304H46.493V79.099h11.226v10.205H57.718z M57.718,71.445H46.493V40.82
		h11.226v30.625H57.718z"/>
</g>
</svg>
