<svg xmlns="http://www.w3.org/2000/svg" width="900" height="1100" viewBox="-10.914 -32.363 900 1100"><path fill="none" stroke="#FFF" stroke-width="3" d="M671.033 178.761l6.187 2.286 2.873-7.558 1.672-.514.528-4.815 3.843-11.73 4.829-5.272.7-3.643 7.188-3.915 1.999-1.914.128-1.329 7.645-1.986 3.93-.457 7.715 2.758 1.429 3.686.857.028 3.344 5.845 1.628 4.543 3.416-1.157 1.686 5.857h1.886l5.059 4.443 1.514 4.173 2.486 3.043.057 2.586 13.217-5.301 9.387.5 1.786 1.2 42.548 45.621 18.159 26.589 2.187 1.899 4.771 1.272-6.415 15.588 5.373.571.699 2.644.844-.072 3.344 4.901 1.471 1.486 1.785-.186-.771 3.887 4.545-.229-4.73 10.715-3.785 62.151-3.144 3.714-6.716-1.672-1.742-1.671-2.743.186-3.858-1.971-4.843 2.972-3.814.371-4.215-1.257-.644-2.271-4.186-1.443-3.572.371-1.614-1.342-2.415 1.484-2.571.258-3.358-1.257-3.243 1.628-8.415-1.857-2.987 1.042-.742 1.186-2.058-.742-3.715 1.115-6.958 7.214-2.601-.156 2.172-8.202-21.475-9.23-14.43 3.244-8.615 6.615 1.344 13.974-3.174-2.972-6.414-.458-2.158-2.414-1.6 3.527-3.815.53-2.114-1.829-.785-2.887-2.801 3.53-2.043-1.043-.715 1.3-2.157-.071-2.601 2.042-1.914-2.228-.571-3.874-2.544-5.457-8.344-6.029.543-2.416-.771-1.329-5.887 1.514-1.57 1.3-2.045-2.257-2.443 1.257-1.914-1.786-1.613-.114-2.53-3.015-3.843-1.028-2.271-2.129-3.016.714-1.213 1.672-3.443-.971-1.743.714-4.286-5.101-8.288-21.375 1.515-2.128 9.588-3.458.27-1.801 7.373-8.158-15.387-17.616-3.358-5.187 19.018-13.459 6.015-8.372 5.558-5.344 10.716.785 7.101 7.287 13.388-9.572 7.887-14.931-14.788-22.975.987-12.758-13.488-5.101 1.832-5.026zM469.92 389.789l-.971-1.071 3.957-10.458 5.501-3.558.429-1.601-2.602-8.015-12.543-20.203.514-.371 12.644 20.202 2.672 8.644-.57 1.815-5.587 3.486-3 7.3-.444 3.83zm64.352-115.03l2.258.443 1.785 1.757 1.543-.628-1.4-4.214 4.531 1.386 8.186 8.286 1.4 5.415.844-.485 5.114 6.972h4.143l5.13 1.786 14.602 11.931 4.701 13.302 1.586.814 2.943 5.357-.543 2.272-4.115 3.085-2.557 2.9.085 1.272 8.301 2.271 3.601 3.158 3.687 1 3.257 3.6-1.129 1.929-5.086 3.388-7.486 1.628-5.544 3.758-3.343.414-2.943-1.93-13.316 2.93-1.785 1.486-13.405-.042-.086 9.8 7.416.301 9.63 10.272 2.485 12.316-4.958 17.145-2.643.229-3.157 6.029 1.213 2.301-2.957 5.072-4.4 4.329-11.216 9.102-1.929-.7.243 1.214-3.329 3.028-4.387 2.844-4.229.586-6.174 5.287-1.898-1.4-7.145 3.915-1.814-1.401-3.844 1.259-2.643 4.099-9.83 28.447-28.461 8.473-15.874-15.117-5.442-5.385-6.645-4.387-13.901-3.5-15.716 2.685-3.187-2.956 1.472-2.402-3.029-1.999.943-1.771-.385-7.159-2.33-4.43.043-2.186 7.73-4.657 1.157-2.658 10.258-6.057 3.702-.629 2.086-2.915 33.775-23.389 3.686-1.143 8.745-7.858.429-1.415-.857-3-1.4.299.199-1.97 1.058.328 2.372-1.857 3.486-6.601 7.829-.815 7.659-7.315-.688-1.37.786-.787.743 1.229 6.4-6.573 15.132-4.387 5.015-4.127-7.144-11.517-4.044-2.972.744-.628-1.058-1.373-1.429.257.385-38.161 15.103-24.575 11.26-2.545z"/><path fill="none" stroke="#FFF" stroke-width="3" d="M456.905 185.248l3.644 2.4 1.972 5.072-4.357-.3-1.972-3.486-.501-3.343 1.214-.343zm-7.945.228l.087 1.572-8.201 1.8-18.561 16.359-.115.971-2.372 1.128 2.015-.042-2.258.3-8.028 6.972-.929-1.244 7.872-6.9-.128-.829 1.044-.558-.701 1.2 21.13-18.646 6.829-2.372 2.316.289zm-59.279-87.869l5.987 1.129.586 1.886-1.743 1.629-1.016-.457.43.786-2.729-.458-3.372.943-4.529 3.7-16.145 6.673 1.058 4.443-2.102 1.243.073 3.657-5.516 2.258-3.072 3.314-6.358.757-4.143 2.257-1.871-.529-1.087-3.2 12.802-8.102 10.173-10.144 13.287-9.059 9.287-2.726zm15.903 6.573l-2.873 2.757-2.801-.071 1.314-1.4-1.557-1.357 5.772-5.886 2.129-.572.515 2.486-2.499 4.043zm237.247-45.336l-5.273 7.688 1.328 8.201 2.401 2.572 8.429 2.571 2.459 4.873 4.229-2.043 7.887 2.714-1.2 10.459 2.8 1.743-3.301 2.257-1.757 4.83-2.1-.272-1.672.986.243 7.887-1.172.572-1.015-.715-1.829 3.915-1.371.529.656.942-1.156 1.401.229 2.9-3.915.643 3.815 6.972-.301 1.686-2.129 3.986-2.285 2.486-2.029.6-.315 2-4.742 7.973-1.001 13.459 6.901 7.558 7.444 1.128 6.243-.256 3.3 1.771 2.986 3.715 5.43 2.172-1.828 5.029 13.473 5.101-.972 12.759 14.787 22.975-7.886 14.931-13.388 9.573-7.101-7.287-10.716-.786-5.559 5.343-6.015 8.372-19.017 13.445-8.73 5.743-3.957-.143-2.558 1.043.301 4.558-5.33 2.872-1.015-2.058-5.901 1.6-2.985-1.414-3.072-7.687-4.044 1.343-.027 1.971-2.1-.857-3.444.743-1.015 1.229.028 2.915-6.015 5.672-4.729 2.243-8.387-2.243-1.43.814-.499-1.528-3.103-2.129-5.398 3.771-.845.486-1.399-5.415-8.186-8.287-4.531-1.386 1.4 4.215-1.543.628-1.785-1.757-2.258-.443.157-1.6-2.086.814-1-2.129-5.701-.3.157-1.414-1.314 2.428-2.4-.414-1.043-1.2.429-2.986-2.528-1.872-6.045 3.515-3.156-.443-4.044.929-1.515 3.958-5.93 2.243-21.231-8.144-7.758 2.357-6.215-3.143-6.372-5.858-3.572-5.201 3.986-4.858 6.472-3.029 1.243-1.758.229-3.814-1.199-5.915-1.244-1.5 2.559-1.229-.857-.6 1.543.042.614-2.8-.786-1.986-1.086.043 1.672-.415.229-1.729-2.457-7.716-.815-6.329 1.972-3.329.072-3.858-1.986-.557-.357-2.059 1.044-.413.156-1.572.615.443-.3-5.629-.787 5.443-.857.6-1.557-3.6-2.215-2.443-.356-2.215 1.743-.3 1.172 1.015v-.972l.957-.071.7 1.129 1.042-.144-2.527-4.915-.43-4.472-2.443-4.658-8.473 6.987-1.314-2.172 2.958-1.057 6.315-6.116.729-4.915 3.658-2.215 1.928-2.515 2.615-16.202-.071-1.586-1.516-1.5 2.716-2.515 3.714-11.373 2.301-3.686 7.845-8.059 10.2-6.372 6.315-6.487 1.371-3.843 6.287-6.343 6.373-3.287 16.959-5.329 16.573-10.044 23.132-10.658 4.729-2.729-2.285-3.858.628.872.501-.529 1.399 3.258 6.517-.043 12.301-4.243.613.643 3.373-.6 6.015-1.929 11.944-1.557 3.644.985.4-.985.456.985.957-1.471 9.931 2.086 8.973-4.244 1.515-.114 1.742 1.533zM492.437 45.358l-2.871.685 7.329-.271-.156 3.629-4.545 2.315-2.956-.186-6.601 4.086-3.302-1.4.415 3.215-5.244-2.086 2.9 2.758 3.502 1.328-1.715.229-.701 1.358-14.443.371-3.53.914-8.744 6.958-4.7 2.158-2.672-.986-.543 1.057-2.643.701-.857 1.815-8.359-.829-3.529 3.101-1.058-.801-3.728.458-.943 1.286.128 2.714-2.573-.571-4.928 4.729-2.672-.644-3.801-2.758-.629-4.686 4.858-4.758 3.114-5.559.4 1.102.943-3.173 28.404-5.558 1.785.386 22.004-7.158 19.131-7.802 4.458-.828 3.872.757-.473 1.358-4.327.586zm121.03-4.802l.387 3.029-.572-.985-3.1 2.657-1.244-.6-.471-2.115 1.315-1.929 3.685-.057zm-76.509-.085l27.361-2.229 27.676.072 2.484 1.214-1.285 1.357-2.287.486-12.071-.3-4.229 2.343-19.061 5.229-6.629-.043-.586 1.814-.027-2.428-10.959-1.172-4.73 4.729-8.158 2.2-.7 1.786-7.771-4.043-3.7-5.144.9-7.043 3.414-2.986 14.916 3.757 5.442.401zm96.626-18.645l2.03.386 2.214 2.086 6.443.686 25.746-3.144 8.259-.342.415.643-3.957 2.801-12.389 4.286-1.515 1.899-5.657 2.658L644 35.413l1.058 1.786-1.601-1.586h-6.043l-.457 1.515-.229-1.443-1.544.3-1.015 1.258.586.801-2.527.228.812 2.887-4.586-.386-2.356 2.272-.973-.686.943-4.772 2.372-5.758 2.029-2.957 5.543-4.4-8.844-2.5-1.672 4.243-1.472-.229.158-1.372 1.557-3.6 7.845.812zM568.719 392.675l3.071-1.143 3.515 3.114 4.586 6.443 3.073 7.302 1.714-.786.887.815 4.199-2.473 1.958 2.814 9.845-10.188 2.443-.856 1.586-1.886 6.63 4.3 2.599 5.257 5.217 3.001 1.928 2.328.657 9.331 6.015 7.43 1.415 5.072-2.814 11.373-4.729 2.258-4.486.856-.9 1.243.371 2.187 3.344 2.214-4.101 2.7-.015 7.345-1.3 4.456 2.243.302.9 5.715 3.872.514.472.856 1.814 3.716.186 3.572 4.059 6.573-1.301 3.313 3.844 1.5 2.801-.257-.272 2.029-2.058 2.243.615 2.356 3.457 1.586 1.028 2.687.458-1.101-1.244-2.172.887.371.229-1.657 1.028 1.101.843-3.615 5.9.044 3.302 2.471 7.215 1.501 5.173.371.113-1.071 1.486.514 3.143-1.429 1.729 1.986 4.673.043 3.801-.601.128-3.128 2.857-2.129 6.787-1.329 7.887.886-.072 1.844 2.515 4.9 4.559 4.771 1.856 3.759 3.287 1.027 1.343 4.83 3.687 2.785 5.086-1.285 8.986 1.472 8.288-2.028 3.601 3.171-.572 2.101 1.9 1.758 3.786-3.386 2.301 1.914 1.114-1.943.942.072 4.658 2.457 1.043 1.8-.771 1.958.586 5.729-2.401 3.857 12.131 4.258 10.188-.071-.972 7.602-.785 1.243-.771-.729-1.314 1.242 1.314 3.015-2.801 3.487-9.616 1.614.373 2.058-2.287 4.729.313 4.687h6.173l8.787 4.214 2.943 3.458 9.229 6.916.429 1.828 4.086.629.815 9.415-.657 1.157-3.001.114-3.485 1.9-.586 7.801-5.445 7.387-4.143 1.715-.5 1.758-3.344 1.171-1.085 2.001-2.13 1.028-3.743-2.957-2.7-4.101-3.314-.357-9.001 4.271-1.443 1.501-1.93-.329-10.457 3.501-4.387 3.472-1.658-1.314-1.715.7-8.614 5.8-1.657 3.045-6.53 2.37-4.5-4.357-4.001 2.386-1.129-2.628-7.914-3.073-1.044 4.158 5.258 3.801-1.729 2.415 1 3.501-.971.028.742 2.528-.928.828-3.801-2.514-4.943-.758-.543-3.143-1.63-1.458-10.915-.485-1.473-6.672-4.344-2.086-1.715-.257-3.799 2.271-9.887-.158-5.959-4.886-.156-1.457 1.729-.329-.486-1.429-4.844-3.687-.3.687-2.687-1.687-5.156.886-1.529 1.172-1.672-1.314-3.029 3.472 3.501.071 3.972 2.443 1.387 5.486 4.4 3.544.414 7.215-8.23-2.472-6.801-.515-7.986-5.701-1.243 2.301-1.472.628.314 2.001-4.586 3.258-.744-.771-2.672.985-1.156 2.301-2.658 1.344-3.285.371-5.715-2.115-3.659 4.529 3.001 2.33-.729.941-1.801-.428-.271 1.199 3.843 2.072 3.157 3.286-1.056 3.243.728 1.5 3.357.8-1.486 1.501-.243 1.929 1.558 1.786-.112 1.058-7.674 5.357-.486 2.43-4.186 1.129-1.929-2.473-2.571-.8-.744-4.087-4.271-5.458-6.115.357 1.144 5.33-1.272 1.342-3.385-.613-15.675 2.543-4.856-.357-3.188-2.044-3.258-4.914-5.357-1.314-4.415-5.472-4.229-.729-2.414-1.529-4.387-7.916-3.986-.256-7.943-3.687-6.744.843-2.686 3.643-1.457.444-4.701-1.173-3.473-3.457-2.242-.729-2.2.942-2.115 5.029-4.071 1.571-4.615-.071-2.258-.943-2.801-3.428-1.857.028-8.428 12.73-2.486 10.972-12.832 7.244-6.599-1.243-4.787 2.486-6.915-3.571-5.315 1.156-7.416-.971-7.987 2.028-.085-2.658 3.614-3.671-1.471-1.856.614-4.444-5.158-2.515-3.414-2.957-2.688.356-2.199 2.343-2.416-.114-4.614-6.629-6.058-2.772-4.286-5.443 3.386.071 1.472-7.114-4.858-.657-1.358-2.258.486-2.015-.829-2.658.586-.613 2.571 2.258 5.729-.145 2.187.872 4.144-2.657-1.557-.958-.215-2.484 6.172-1.829 2.386-4.529 5.243.628.928-4.1 3.13-5.802 1.072.5-.143-2.3 9.901-17.703 3.1 2.015 4.115.329 4.572-6.473 1.715-.442 6.943 5.157 6.53 1.243 3.501 2.344 1.928.113 2.759-1.399 4.028-4.128 7.358.256 7.101-2.715 4.458-3.329 6.173 1.215 5.286-.114 4.571 3.229 7.301 2.7 3.258 3.888 7.616 2.257 3.829 2.571 2.271-2.015 1.3.729-.101-1.871 1.344-.329-1.014-5.558.828-2.457-2.287-2.701-1.471-4.515-3.229-1.972-1.515-3.957-3.457-2.601 1.243-.028.3-6.415-4.3-1.615.3-2.527-1.729-.744 1.771-10.773-.371-2.871-1.372-.915-.186-2.643-.856-.586.042-3.128-1.9 1.027-.586-.686-2.014.515 1.9 4.914-.157.729-1.829-.543-.729 1.285 1.5.615-2.172 2.313-3.887-.257-.584 1.987-4.572.699-5.358-3.715 2.442-3.115 3.259-2.057-.302-3.814 2.088-2.615-1.587-1.029 4.671.486-.899-2.286-2.144-1.643.829-1.957 2.473-.357 1.1-2.13-3.044-1.514.273-2.686-4.158-.872.313-2.471-2.086-2.173-12.229-2.457-.93-4.272 3.6-1.029.516-5.001-9.244-7.543 2.6-11.188 28.463-8.472 9.844-28.447 2.643-4.101 3.844-1.257 1.799 1.414 7.145-3.915 1.9 1.401 6.173-5.288 4.229-.585 4.385-2.844 3.329-3.029-.257-1.228 1.928.699 11.217-9.088 4.401-4.328 2.972-5.073-1.229-2.299 3.171-6.029 2.644-.215 4.936-17.152z"/><path fill="none" stroke="#FFF" stroke-width="3" d="M778.233 41.342l1.985.486 3.645-2.958 3.93 1.585.472 1.329-.572 1.857-3.93-.8-.157.714 3.53.871-.243 1.029-2.058.271 6.214.985.158-.757-2.2-.758.957-3.629 4.429 1.4 5 4.772-1.898 6.814-.244 5.301 3.271 4.729-.613.986 1.114 1.014-.3 3.972 2.486 11.302 8.101 5.858-1.329 2.644 14.473 5.443 3.173 2.372 8.658 2.415 6.686-.157.943-1.357 4.03-1.429.043.986-3.329 3.057-.071 6.043-1.815 5.016 1.701 3.657 3.499 2.372 7.816.571 2.3 1.7 2.672.714 1.557-.6 2.102 1.586 7.729 2.372.787-2.9 1.914 16.616-2.129 3.729 4.229 3.915-5.4 1.658-3.071 6.7-.087 3.615-2.214 3.158.899 6.272 4.073 3-.472 12.501 2.942 24.803 1.158 2.958-1.829 2.286-5.943 21.803-17.346 28.761-3.757 4.815-.501 1.086 1.129 4.215-4.543.228.771-3.886-1.786.186-1.472-1.5-3.344-4.886-.843.071-.7-2.657-5.387-.558 6.415-15.588-4.771-1.271-2.2-1.9-18.16-26.575-42.549-45.635-1.786-1.2-9.387-.486-13.23 5.301-.043-2.586-2.485-3.043-1.515-4.172-5.059-4.429h-1.871l-1.7-5.872-3.414 1.171-1.629-4.558-3.345-5.829-.856-.043-1.429-3.686-7.716-2.743-3.93.457-7.643 2-.129 1.314-1.986 1.915-7.186 3.915-.701 3.644-4.843 5.272-3.844 11.729-.515 4.815-1.672.528-2.871 7.544-6.201-2.286-5.429-2.172-2.985-3.714-3.302-1.772-6.244.258-7.443-1.129-6.901-7.558 1-13.459 4.744-7.973.314-2 2.028-.601 2.287-2.486 2.128-3.986.315-1.7-3.815-6.972 3.914-.643-.227-2.9 1.156-1.4-.657-.942 1.372-.529 1.828-3.914 1.015.714 1.171-.572-.243-7.887 1.672-.986 2.101.272 1.758-4.83 3.301-2.258-2.801-1.742 1.2-10.458-7.888-2.715-4.229 2.043-2.457-4.873-8.431-2.571-2.399-2.572-1.328-8.201 5.271-7.687 1.987-.571.07 1.443.9.042 10.787-2.686 9.316 4.729 3.371 3.601 5.858-4.344 13.273-5.601 37.604-4.801 31.29-11.473 12.644-1.257 8.362 3.363zM691.55 17.396l1.058.186-.115.943-5.814-.871 1.671-.758 3.2.5zm40.363-2.2l1.587.271-.943 1.786-3.644-1.929 1.714-.799 1.286.671zm6.715-6.458l-.158.758-3.186-.415 1.129 2.772-4.629-2.2-3.659.343-.542-.714 1.429-2.201 1.443-.415 4.887.528 3.286 1.544zm-27.833-.915l3.658.829 3.814 3.758-4.586-.685-1.443-1.401-.471 2.958-3.373-.372-1.214.829.699 1.814-1.113.758-1.987-.572-1.014-.829-.5-3-3.602-3.3 1.115-6.373.857.115.972 3.3 8.188 2.171zM569.176 672.741l1.272-1.342-1.144-5.33 6.115-.357 4.271 5.458.744 4.087 2.571.8 1.929 2.473 4.186-1.129.4 2.042 8.615.215 7.373 3.943 2.029 3.058 2.043.728-.301 1.63h-2.301l-1.399 1.743 1.442 4.586-1.014 2.586.929 5.058 10.53 4.801 1.356-.472.515 1.015 6.629 1.158-2.558 8.872-1.714 4.102-.857-.4-.613 5.742 6.786 5.301 1.415 2.715 6.113 5.915 5.33 10.602 4.844 3.801 3.229 5.657-.043 7.559 2.3 7.072-.985 9.072-1.187.515-.085 6.544-1.7 9.944 4.485-.215-2.672 4.987 2.672 9.215-8.03 7.401.559 2.129-5.473 1.186-3.271 8.916-5.63 7.787-1.429 4.186-8.587 9.473-2.999 1.844 3.2 6.829-4.073 1.486 1.43 13.173 2.014 3.915 3.845.57 5.157-4.027 9.673-4.673 3.758 2.914-9.573 4.744 7.959 5.429-2.773 1.915-.113 1.5-7.73 1.157-4.843 3.158-3.443.613-1.257 3.845-1.172-.687-1.743 2.587-3.528 1.471-.301 1.829-2.8 3.244-2.615 1.999-2.515.758-1-.614-1.357 1.015-3.572 3.414-1.357 2.716-2.1.756.371 1.158-2.443 2.972-.457 5.814-2.529 1.172.429 2.015-5.044.213-5.229-11.187-5.029 4.658-5.972.829.399 2.229 2.701 3.301-1.273 2.5 1.445 3.657 3.728 2.801-.058 2.115 2.102.928-.315 5.087-2.329 2.586 1.059 2.072 1.628.099 6.573-3.785 4.458-1.001 3.028 3.188 3.287-1.401 9.8-.328-2.258 7.314-2.242 2.216 2.6 1.614.657 6.586 5.973 2.143 1.215-.428.986.929-.258 1.757 4.615-.328 3.215 2 1.328-1.457-2.915 4.357-1.543 5.858 3.144 7.044-2.714 4.687-.673 4.813-3.686-1.856-.457-1.5-8.315 3.615-.157 4.957 2.301 4.286-1.201.644.386 1.1-3.843 4.315-1.086.286-4.229-2.672-2.229 2.599-.186 2.144 2.9.858 2.687 3.386 6.285 3.856-2.242 4.174.971 2.313-8.973.602-1.941-2.745-2.416-.57-10.072 4.215-.629-1.572-1.943.215-1 1.214-2.757-2-.829-4.416-5.387 2.772-2.372 2.457-1.372-3.556-2.985 1.928-5.243 1.1-3.687-5.2-1.972.814-1.914-5.058-2.271.385-5.83 7.559h-2.571l-1.9-1.314-1.2 1.5-3.801 1.63-3.372-.915 4.144-8.672-2.058-4.959 1.486-3.528-1.286-2.029-3.028-.257-.356-1.429-4.974-1.314-.186-1.644-1.442-.828.428-1.887-2.486-4.813.287-6.473 1.627-1.386-.855-1.071.586-.787 5.115-2.714h1.9l.812-2.401 2.773-2.929 1.199-5.157 1.715-.356 2.356 1.355 1.173-.6 1.357-5.944 2.713-3.428 1.273-4 2.457-1.229-1.415-3.472-1.585-.286-3.53 2.015-1.544-.828-.199-1.829 10.244-12.716.014-4.329 2.23-4.772-4.102-3.829 3.029-6.13.529-4.101 3.971 1.443 1.93-1.014-.758-4.044 1.887-2.514-2.1-4.245 3.043-1.715 3.329 1.33 1.786-1.943.314-2.043-.93-1.371-4.473-1.072.044-2.701 3.214-3.943 3.771-.757 1.045-3.272 2.214-1.541-4.216-3.272.301-1.259-2.943-4.028-2.287 3.129-2.184-1.229-6.102 3.886-.543-1.328.899-2.587-1.786-.756-.242-1.071 1.672-1.415-1.115-.243.572-1.943-2.101-2.157-4.801-1.729-1.1 1.257-4.959.257-1.757 1.357-4.543-1.57-2.786.813-1.172-1.072-3.029.172-1.429-2.3-.043-2.257-19.859-8.388 6.602-2.015-.043.786 5.742-2.886 1.387-15.018 10.059-14.315 45.92-14.331 13.273-11.373-13.701-23.359-2.658-15.103-1.729-4.415-3.33-22.946 12.003 2.358 3.8 3.015 7.444-.771 14.874-5.501 5.557 5.687 1.314-1.272 2.329-.213-1.628-3.115-.029-6.102-3.043-5.158-.9-8.314-5.686-5.559-5.63-3.771-.357-1.813 1.758-5.131-4.716-1.485 1.688-4.001-2.059-10.658-4.129-2.187-6.258-.843-3.787-1.527-1.57-2.001-1.529-8.087-2.886-2.74z"/><path fill="none" stroke="#FFF" stroke-width="3" d="M373.937 649.624l4.3 5.43 6.058 2.772 4.616 6.629 2.414.114 2.201-2.329 2.686-.356 3.416 2.957 5.157 2.515-.614 4.444 1.47 1.856-3.614 3.671.085 2.658 7.988-2.043 7.415.985 5.314-1.171 6.917 3.572 4.786-2.473 6.6 1.243 12.817-7.244 2.486-10.972 8.428-12.73 1.857-.044 2.801 3.43 2.258.943 4.615.071 4.071-1.571 2.13-5.03 2.199-.943 2.244.729 3.485 3.473 4.7 1.171 1.444-.442 2.687-3.643 6.743-.843 7.958 3.687 3.985.256 4.387 7.916 2.415 1.529 4.229.729 4.4 5.472 5.358 1.314 3.256 4.914 3.188 2.044 4.857.371 15.674-2.557 3.387.613 2.898 2.729 1.516 8.087 1.585 2.001 3.772 1.527 6.258.843 4.145 2.187 2.057 10.658-1.699 4.001 4.729 1.485-1.758 5.129.357 1.815 5.629 3.771 5.672 5.559.902 8.314 3.057 5.158.027 6.102 1.63 3.115-2.329.213-1.314 1.272-5.559-5.701-14.873 5.516-7.443.758-3.801-3.016-12.002-2.357 3.33 22.946 1.742 4.415 2.643 15.103 13.703 23.359-13.273 11.373-45.921 14.331-10.059 14.315-1.372 15.031-5.742 2.886.041-.786-6.6 2.015-.857-.757-1.015-7.03.2-8.243-6.6-6.158-2.517-4.401-5.786-1.628-1.357-.114-4.086 5.415-5.501 1.042-.699 2.13-1.272.142-3.715 4.943-16.159-4.328-2.242 4.401-9.617.499-6.828-1.729-6.301 1.442-2.058-1.985 3.057-13.587-8.843-5.73-5.9 1.943-2.53 1.985-6.372-1.942-.585-11.803-13.618-16.473 7.373-14.059-5.929-14.045-7.458-.471-1.601-2.759.113-2.386-1.013-.429-5.701 5.5-1.286 9.845-8.887 7.529-7.929 9.974-.771-1.187.428 1.415-1.443.657-1.629-.472 2.287-.615-3.057-2.1-2.244-4.044-1.328.801-1.829-1.229.272-.871-.858.686-1.972-.5-2.015 2.785-3.6-2.128-1.158.972-1.672-.758-10.673 2.129L322.4 797l-.971-4.772 1.329-1.342 2.458-.215.586 1.157 9.001 2.9 1.757 1.586 1.83-.043-.729-.8 1.428-1.229h-3.871l-1.471-8.529 2.4-4.158 1.2.943 1.243-1.129-2.243-1.7 1.214-6.443-4.501-1.086-1.214-4.087-9.887-3.3-4.53 1.7-1.6 3.615-3.644 1.914-3.115 5.501-2.757.657-2.329 5.5-5.858 2.673.543 6.329-2.329.757-1.672-.613-2.714 1.414-2.486-1.272-12.03-2.243-9.015 3.358-1.215-9.401 3.887-8.501-2.401-3.516-14.431 1.701-2.257 2.356-4.886.872-13.245 7.016-1.043 1.299 3.229.4 1.429 3.829-1.314.801.5 1.729-2.514 2.43 1.929 4.729 8.858 11.673-1.243 1.485 1.171 2.459-2.057-.4-6.244 3.144-3.872.357-7.929-1.088-1.744-6.786-13.13.4-.771-2.271-1.429-.186-.743-1.63.943-3.256-1.157-7.087 2.714-3.43-12.645-28.347-.042-2.786 3.814-11.53.128-3.629-2.014-3.986-7.458-9.144-1.058-3.7 1.915-6.787 2.572-2.543 6.215-2.729 2.401-4.501 6.128.729 12.974-3.602 4.701-2.187 3.986-3.229 2.086-4.914 3.486-4.258 1.272-.044.628-1.642 4.586-3.858 16.974 5.672 4.972.515 16.959-4.657 3.572-2.873 14.245-4.071 6.844-4.843 7.872-7.615 3.215-8.202 3.501-4.157 6.529-2.844 11.302.144 4.843-3.059 4.086-4.229 5.329-2.657 6.259-.586 14.302 2.602zm-15.06 135.632l-1.93 2.815-.2-2.358-.729.614v-1.343l-1.243.758.843 1.015-.385 2.2-1.286.657 5.129 2.242.787-1.113-.544-.901 1.401-.971-2.029-.543-.272-1.157 1.386.143-.885-1.587 2.143-1.085.314.758 1.399-1.658-.5-.828-1.058 1.043-4.186.071 1.845 1.228zm3.572 1.159l-1.015-.829-.586.613 1.601.216zm-12.987 6.9l-.572.758.616-.144-.044-.614zm9.615 5.287l-2.285.657.842.827-.943.801 2.628-.429-.242-1.856zM441.759 328.324l12.316 5.473 10.13 10.716-.514.371-10.017-10.602-11.759-5.129h-3.972l3.816-.829zm-55.692-91.57l-3.059 2.472-.542 3.558 2.1-.371 14.789 28.933-2.172 26.117 1.744.114.957 1.672 1.242 5.186 6.331 6.444 1.671.557 2.53.043 2.013-1.343 3.602-5.287 6.372.372 4.843 2.528 5.058-1 .615.714-2.215.786 3.072-.186 2.643 1.757.971 10.202 4.429 2.714-1.714-.143-.313 1.972-4.202 2.386.728 1.856-8.271 2.115-2.358 10.444-1.129 1.671-5.273 2.943-2.143 3.086-5.601 1.442-3.329 3.53-7.215 1.257-1.672-4.758-3.071.229-3.759-3.973-3.142.929-1.672 1.713-.301-.971-1.942.301.156 1.37-1.543-2.785-1.328.042-1.658 1.786-3.929 1.786-.628 1.442 1.158 10.289-.615 1.442 2.758 7.687-.357 2.371 2.728 2.559 2.729 6.086-.157 2.185 3.572 7.373 1 .043-.243 1.444 1.543 1.256.943 3.144-3.343 5.044-1.586-.115-.671.886.115 3.886 1.656 1.928-.143 1.587-3.886-.186-2.729 1.371-1-.584 1.873 2.957 1.127-1.514 1.543.371-1.157 2.372.029 5.257 6.829 1.301 2.358-.586.428-4.657 2.086-2.743-1.814-11.031 2.601 7.515 1.942 2.372 5.358.4-5.358 2.301-1.557 1.628h-1.672l-.672 4.586-1.528 2.372-1 .485-.114-1.3-1.644 1.486-2.144 6.216-2.957-.144-1.743 2.558-3.144 2.102-1.743 4.872-3.059 1.628.614.957-.9 2.658-2.6-1.814-4.043 1.7-3.773-3.401-1.014 1.186.671 1.772 3.645 1.886-1.744 2.001-.671-1.515-1.214 1.027 4.701 3.029 3.458 4.172 3.343.673 3.114-1.472 1.601 1.557-1.399 1.958.628 1.371 1.058-.114-.229-1 2.029.771 5.743-.3 1.831-1.329 3.256.486 4.272 3.215 5.93 1.515 3.186 2.957 15.716-2.687 13.901 3.5 6.644 4.387 5.444 5.387-6.759 4.829-6.601-1.186-2.144 1.957-1.328-.586-3.615 7.444-4.958 4.414-.7 11.346-6.244 12.472-15.459-.843-.399-1.614 4.186-2.8 1.2-2.13-2.844-5.671-2.714-1.515-.7 1.356-9.702.258-7.487-3.057-.898-3.13 4.729-2.129-3.116-3.058-.813-4.086-1.943.814-2.144-6.701 5.788-1.729.243-1.629 1.828-.957 1.715 1.328-1.088-2.836-2.4.188-1.757 2.098-2.143-1.799-1.014.301-3.059 3.828h-.999l-1.944-4.572-1.399-.586-3.502.259-3.756 3.756-6.358-1.328-1.715.742.3 3.2-3.329 2.43-1.671 3.201-9.673.186-7.915 7.515-4.257 1.958h-3.529l-2.358-.516-2.214.957-1.314 1.916-6.801 3.785-1.757 2.216-1.314-1-.343-7.988-4.415-.699-3.801 2.615-5.158.4-7.329 4.271-4.629.33-6.573-1.729-2.4.815-3.329-.773-1.543-1.256-.229-1.872 1.986-3.014 1.786-9.36-.414-2.914 4.472-4.529 5.444-12.06-6.144-2.327-3.057.843-1.429 2.657-15.345-6.93 15.102-39.233 1.215-8.616 1.157-1.585-.857-2.444 4.387-11.115 5.786-32.262 6.644-55.851 2.028-9.572 3.258-7.201 3.814-12.945 5.244-20.946 1.171-5.415 1-20.203 2.4-6.401 2.029-1.872 9.973-.9-.186.829 1.429-.071-1.129.942 1.7 2.615 1.657-.443.787-1.829-1.386-1.229 2.2-.443.572 2.915-2.83 7.83 3.715 7.93 15.416 9.344 7.345-1.943 7.101-3.586 3.458-4.372.973-3.329 2.143-1.915 7.758-2.243 2.628.743 3.53-1.158 1.899 1.343 28.447-25.204.928 1.243-25.434 22.131zm-39.449-81.711l1.83.372 4.342 7.444-1.157 2.4-.456-1.243-.187 17.802-.885 2.701-5.501 4.843-.2 3.873-2.415 4.357-2.4 1.243-1.829 2.7-5.543 1.343-6.086 7.915 1.015 1.271-.657.943-9.23-2.929-.586.486.857 1.429 2.629 1.043 2.057 2.214-2.172-.672-2.443 1.429.615.829-4.144.442-2.3 1.572-3.843-5.729-.786-4.086.357-6.972 2.6-11.287 6.472-13.359 16.459-25.932 5.815-6.172 2.087-.786 1.429.6 3.542 5.602.714 4.314zM626.798 268.23l3.358 5.187 15.387 17.616-7.373 8.158-.27 1.801-9.588 3.458-1.515 2.128 8.288 21.375 4.286 5.101 1.743-.714 3.443.971 1.213-1.672 3.016-.714 2.271 2.129 3.843 1.028 2.53 3.015 1.613.114 1.914 1.786 2.443-1.257 2.045 2.257 1.57-1.3 5.887-1.514.771 1.329-.543 2.416 8.344 6.029 2.544 5.457.571 3.874 1.914 2.228 2.601-2.042 2.157.071.715-1.3 2.043 1.043 2.801-3.53.785 2.887 2.114 1.829 3.815-.53 1.6-3.527 2.158 2.414 6.414.458 3.174 2.972-1.344-13.974 8.615-6.615 14.43-3.244 21.475 9.23-2.172 8.202 2.601.156 3.144 4.201-1.543 9.944 10.716 9.458-4.387 1.229-4.972-1.115-2.386 5.315-7.874-1.599 5.631 11.758-1.601 12.774 14.216 9.214 3.729 1.115 17.288-.029-.014 3.473 2.328-.485 17.659 5.743 4.716-3.671 3.329-7.029 2.514-1.771 3.114 6.842 1.857 7.73 2.529 2.301 3.186 8.058 5.187.586 3.387 9.644-.156 7.873-3.801 5.315-2.015 4.9-.386 3.615-4.343 9.115.342 6.044 3.614 6.7 4.529 5.059-1 2.314-4.9 3.171-4.458.8-3.414-1.356-4.115 1-1.257 1.729-.886 5.115-5.544 9.457-9.815 1.9-.644 2.429-5.071 4.715-2.144 9.589-3.801 3.671-21.46.843-10.188.071-12.131-4.258 2.401-3.857-.586-5.729.771-1.958-1.043-1.8-4.658-2.457-.942-.072-1.114 1.943-2.301-1.914-3.786 3.386-1.9-1.758.572-2.101-3.601-3.171-8.288 2.028-8.986-1.472-5.086 1.285-3.687-2.785-1.343-4.83-3.287-1.027-1.856-3.759-4.559-4.771-2.515-4.9.072-1.844-7.887-.886-6.787 1.329-2.857 2.129-.128 3.128-3.801.601-4.673-.043-1.729-1.986-3.143 1.429-1.486-.514-.113 1.071-5.173-.371-7.215-1.501-3.302-2.471-5.9-.044-.843 3.615-1.028-1.101-.229 1.657-.887-.371 1.244 2.172-.458 1.101-1.028-2.687-3.457-1.586-.615-2.356 2.058-2.243.272-2.029-2.801.257-3.844-1.5 1.301-3.313-4.059-6.573-.186-3.572-1.814-3.716-.472-.856-3.872-.514-.9-5.715-2.243-.302 1.3-4.456.015-7.345 4.101-2.7-3.344-2.214-.371-2.187.9-1.243 4.486-.856 4.729-2.258 2.814-11.373-1.415-5.072-6.015-7.43-.657-9.331-1.928-2.328-5.217-3.001-2.599-5.257-6.63-4.3-1.586 1.886-2.443.856-9.845 10.188-1.958-2.814-4.199 2.473-.887-.815-1.714.786-3.073-7.302-4.586-6.443-3.515-3.114-3.071 1.143-2.486-12.302-9.63-10.286-7.415-.288.086-9.8 13.416.028 1.785-1.485 13.316-2.93 2.944 1.93 3.343-.415 5.529-3.744 7.486-1.644 5.087-3.372 1.129-1.942-3.258-3.6-3.673-1.001-3.6-3.157-8.302-2.271-.085-1.272 2.558-2.9 4.114-3.086.543-2.271-2.943-5.358-1.586-.813-4.701-13.302-14.602-11.93-5.129-1.786h-4.144l-5.114-6.972 5.414-3.772 3.087 2.128.499 1.529 1.43-.815 8.387 2.229 4.729-2.229 6.015-5.672-.029-2.915 1.015-1.229 3.444-.743 2.1.857.029-1.985 4.043-1.343 3.071 7.687 2.987 1.429 5.9-1.615 1.015 2.057 5.329-2.872-.285-4.558 2.557-1.043 3.958.143 8.726-5.751z"/><path fill="none" stroke="#FFF" stroke-width="3" d="M327.202 499.332h3.529l4.244-1.956 7.915-7.515 9.673-.188 1.672-3.2 3.329-2.428-.3-3.215 1.729-.729 6.344 1.314 3.756-3.759 3.501-.257 1.401.6 1.943 4.559h.999l3.059-3.83 1.013-.285 2.143 1.801 1.772-2.102 2.386-.184 1.087 2.842-1.715-1.328-1.829.957-.257 1.614-5.786 1.744 2.157 6.7 1.942-.815.814 4.087 3.114 3.057-4.729 2.144.914 3.13 7.473 3.057 9.701-.256.701-1.372 2.714 1.514 2.857 5.673-1.2 2.128-4.186 2.801.399 1.615 15.474.843 6.245-12.474.699-11.344 4.943-4.414 3.615-7.445 1.344.586 2.143-1.942 6.6 1.171 6.758-4.829 15.873 15.116-2.6 11.188 9.244 7.543-.516 5.001-3.6 1.029.93 4.272 12.229 2.457 2.086 2.173-.313 2.471 4.158.872-.273 2.686 3.044 1.514-1.1 2.13-2.473.357-.829 1.957 2.144 1.643.899 2.286-4.671-.486 1.587 1.029-2.088 2.615.302 3.814-3.259 2.057-2.442 3.115 5.358 3.715 4.572-.699.584-1.987 3.887.257 2.172-2.313-1.5-.615.729-1.285 1.829.543.157-.729-1.9-4.914 2.014-.515.586.686 1.9-1.027-.042 3.128.856.586.186 2.643 1.372.915.371 2.871-1.771 10.773 1.729.744-.3 2.527 4.3 1.615-.3 6.415-1.243.028 3.457 2.601 1.515 3.957 3.229 1.972 1.471 4.515 2.287 2.701-.828 2.457 1.014 5.558-1.344.329.101 1.871-1.3-.729-2.271 2.015-3.829-2.571-7.616-2.257-3.258-3.888-7.301-2.7-4.571-3.229-5.286.114-6.173-1.215-4.458 3.329-7.101 2.715-7.358-.256-4.028 4.128-2.759 1.399-1.928-.113-3.501-2.344-6.53-1.243-6.943-5.157-1.715.442-4.572 6.473-4.115-.329-3.1-2.015-7.115-2.6-2.215-7.244-5.2-2.571-4.3-.687-6.715 2.815-6.258 5.929-1.758 3.372-2.286.257-3.487-2.743-2.614-.156-6.286 6.271-6.401-1.472-4.772 7.387-8.858 2.129-1.842-7.215-6.502-7.358-2.915-5.701-1.729-.585-2-2.672 9.059-2.243-1.644-4.029-9.115 1.872-.628-2.058v-1.314l1.986-1.429-.386-2.758 4.543-5.742 3.729-2.83 4.73-1.729 1.143-2.343-9.258.628.086-1.958-1.671-3.329-.258-8.914-7.729-5.559.372-1.5 2.772-1.243 1.743-4.815 1.814-.771 3.43-1.1.528 2.157 1.258 1 6.043.328 1.129-.885-.843-5.773 4.701-2.313-7.572-5.259-3.415-1.214-6.915-8.272-1.529.071-.329-5.558-1.601-2.644-.087-2.431zM178.124 815.903l.886-.356 1.043 2.243-2.629.5-3.486-2.029 1.7-1.115 2.486.757zM44.935 801.672l4.201 1.344-.029 1.043 2.1.07 2.244 2.645 5 .9 2.014 1.729 15.874 3.258 7.33 7.657 3.929-.357 5.543 1.115-.814 2.786 2.372 1.257.957-.356-.243-4.401 4.357.114 2.458 1.915 2.171.329-.7 1.371 1.657 3.215.114-4.373.857 1.772 1.172-1.699 4.071 2.386 5.772-.144 2.015-3.286 3.372-1.015 5.015-4.043 9.201-3.029 1.114.872.972-5.786 1.243-1.344-.729-4.4 2.357-3.329 9.859 1.957-.458.758 2.8 2.057.815 4.487h.929l3.058 5.314 9.387.899 11.573 10.646-3.687-5.887 3.872-1.015 1.4 1.957 2.286.715 1.543 2.486.586-.901-1.472-1.956 3.543.186-4.201-1.701 6.844.145-.943-.943-6.329-.644-1.872-3.215.113-1.657 2.416-.143 2.243-1.371.615 4.4 4.857 2.199-4.387-3.572.472-2.242.857 1.985 1.158-4.114 4.086.613 1.6 1.229.929 3.072 3.801 4.985-14.788 19.847-23.332 16.73-.771 1.372-4.157.971-1.358-1.514-2.628 1.442-.815-1.371-1.486.043-6.101 4.243-.428-.543-2.015 3.343-3.229.572-1.014 2.771-5.129 1.472-1.758-2.814-.686 1.157-1.314.071-.415 2.771-1.515 1.258-5.386 1.829-1.758-2.629 3.272-3.315-1.329-2.229-6.558 4.286-1.586-.971-2.128.785-1.315-.542-3.114 1.586-4.044-1.472-.128 1.657-2.873-2.229-.357-10.844 1.386-3.815-4.087-2.813-1.014-.429-1.357 1.328-3.258-3.714-6.486-.872-1.443.571-5-1.443-1.329-1.871-2.4-.043-4.772-3.429-3.915.715-11.188-6.244-2.243 2.672 1.085 1.942-.886 2.271-4.472-2.843-1.743 1.729-2.558-.33-1.157 2.459-1.243.186-1.7-1.701-2.215.429 2.744 14.816-17.045 1.686-5.501-1.299-1.014-3.858-1.629-1.543-1.628 1.042-4.629-6.015-2.8-1.514 1.357-1.115-.043-2.057-2.4-2.015-.886-2.243 2.029-1.086-3.929-5.145 5.701-6.457-.415-3.244-1.943-2.528.143-3.787-1.872-3.613 3.072-3.001.429.542 9.472-4.843 1.872-.286 1.286 1.442 4.086-2.457 6.63-1.557 5-3.286 7.33.543 1.561 1.445zm32.576-48.32l.771-1.443.2.943-.971.5zm16.23-3.701l2.601.586-5.386.33.386-1.372 2.399.456zm3.344-.843l-1.329-.984 1.643.284-.314.7zm-1.958-1.014l.243 1.2-3.072-.871 2.829-.329zm-19.102-.328l2.3 2.329-1.128 3.014-1.786-4.458.614-.885zm-3.329-3.544l.586.758-1.429-.257.843-.501zm37.862-71.367l1.872 1.829 6.473 2.043 2.3-.442 4.586-5.829 7.816-3.201 4.186.586 3.215 2.915 8.63 1.928 1.543 4.845 3.729 5.287.343 7.057 2.714 6.372 11.573 1.459 4.271 1.527 7.573.258 17.73 12.944 4.229 1.386-2.4 4.501-6.215 2.729-2.572 2.542-1.915 6.786 1.058 3.702 7.458 9.144 2.015 3.986-.128 3.629-3.814 11.53.042 2.786 12.645 28.347-2.714 3.428 1.157 7.089-.943 3.256.743 1.63 1.429.186.772 2.271-8.145.357.571-2.743-2.786-4.63-4.115-1.885-1.485.284-1.472-2.314-11.144 4.016-16.145-4.485-6.174-4.661-1.114-2.171.785-1.229-3.643-1.129-.229-1.557-.829.428-5.672-2.857-6.486-6.473-9.273 4.845-2.101-.687.243 1.843-1.014.215 1 3.515-5.672 14.245-1.586.757-5.043-1.515-3.058 2.2-9.744 2.344-9.159-7.516.386-1.558-2.786-.186-2.443-1.586-2.128 1.186-2.872-.328-1.314-1.085-1.2-4.201-1.129.114-3.415-4.587-5.058-3.658-6.944-.284-2.729 3.071-5.972.586-1.672-1.343-.114-2.772-.786.114-.143 3-1.128-.327v-1.187l-.472.971-.472-1.271-.3.899 2.329 1.729-6.144.114-2.558-3.258-1.329.114-5.715-4.887-6.472-10.645-9.787-7.029-4.771-5.473 1.328-5.729 13.345-9.03 16.53-9.401 6.787.072 6.015 2.215 11.102-3.986 1.386-7.373-1.214-1.485 1.628-.286 5.401-6.029-.343-.687 1.115-.284 1.372-3.016-.729-.914 1.115-.329.042-4.114-3.343-1.058-2.6-2.144-3.172-6.001-.243-4.701 3.614-7.428 2.629-2.001 14.059-4.559 11.801 1.172.972-4.515 2.63-2.325zm-7.144 23.918l-1.4-1.415-1.043.186-1.014.729-.472 2.515-6.686 4.543-7.873 3.087-.071 4.029 1.129.143-.429 1.529-1.242.041-1.872 4.545 1.286-.258-2.058 2.257 2.086 1.087-2.257-.657-.886 3.158-1.271-2.187-2.086 1.813-1.743 8.646.342.685 1.201-.872.042.73 2.244-.472 3.771 2.729 2.629.042 8-2.757 2.715.586 1.442-1.372 5.129-1.229 4.187.801 3.686-.872.886 1.129 4.357.8 2.415 2.572 3.729 6.501.743-.657-.7 1.014 2.357 3.657-.271 1.129-5.358 2.028-2.529 3.416-1.814.586-4.958-4.572-3.929.9-2.671 2.171-9.944-2.615-6.043 3.515-6.916 7.002-1.129-2.544.628-2.171 1.429 2.714.072-.971-4.229-7.901 2.715-3.557-3.444 3.271-5.671-4.572-1.758-.286-1.786-4.529.415-1.886-4.344 1.814.4 3.371 3.757 5.374 5.329 3.157 3.373 8.229 3.915 6.058.357-.656.772 1.413-.5-1.299 3.615-.586-2.672-.071-.657-.872 5.115-2.571-.772-1.486 1.714-4.344 2.529-1.63 1.086.073-.615 1.456.972-1.058 10.044.516 2.943-1.743 5.201-.9 2.843 1.157 1.201 1.957 2.686.543 1.329-1.843.843 1.2 3.572-.985 3.172.614 2.729-1.629 3.215.543 3.386 6.629 3.5-1.527 2.629.47 7.73 2.786.228 2.929h.7l-.243-2.899 2.8 1.157.942 1.914 4.901 3.772 1.672-.515 1.858 5.759-.857 2.429 5.329 8.001 1.171.043 2.029 4.414 10.173 5.216 3.458-.586 6.401-3.729 4.358.758 2.214 1.371 2.486-.186-1.472-18.603-9.715-4.386-.9-2.244 1.271-2.614-2.172-2.5-3.414-.586-1.672 1.058-1.758-1.601-7.372.515-6.301-1.158-.243-1.371-1.671-.757-.815-3.658-2.357-1.485-.128-1.7-5.272-1.529.614-1.7-1.443-2.144-4.701-2.972-3.101-.472-1.243-1.672 1.543-4.099 7.344-1.415 6.915-4.472 4.972-1.529 5.786.986 1.4 2.686 2.458 1.386-.3-1.015 6.372-.758 2.915.729.386-1.056 2.628-.401.115-.801-1.057-.284 1.485-.829-.085-1.314-3.973.985-6.686-.186-2.187-4.4-3.543-2.258-.186-3.771 1.314-.143v-1.157l3.387-2.986 6.415 1.271 9.787 5.559-1.129-3.602-6.901-3.057.229-2.001-1.543 1.415-3.029-1.058-.157-1.057 4.701.113-1.114-1.486-3.729.729 3.529-1.414 1.015.515.671-.915-2.171-4.115-9.315 2.072-3.101 2.143 2.443 2.943-.385 1.087h-1.058l-.857 3.3-3.101 1.928-2.672 3.53-2.686 1.314-2.128-.943-9.016 4.801-8.801 1.242-5.158-3.886-1.943-3.387-2.9 2.286-6.33-1.558 6.53-5.701-1.872.472-6.244 4.943.114-3.457-1.443-4.829-1.986-2.443.114-1.601-3.958-3.743-2.443.286-5.586-2.872.157-2.186-1.171-1.743-2.443-.758-1.443.186.115.872.756.544z"/><path fill="none" stroke="#FFF" stroke-width="3" d="M225.188 685.6l4.501 3.344-5.672-.215-1.557-1.715 2.728-1.414zm-16.917-11.357l7.572 1.456 11.102 4.559 1.357 1.813-5.229 2.043-6.472-.843-11.173-7.572 1.128-1.601 1.715.145zm50.765-211.073l15.344 6.93 1.429-2.657 3.058-.845 6.143 2.33-5.443 12.059-4.472 4.529.415 2.916-1.786 9.356-1.986 3.015.229 1.871 1.543 1.259 3.329.771 2.4-.814 6.572 1.729 4.629-.329 7.33-4.271 5.158-.4 3.801-2.614 4.415.7.343 7.986 1.314 1.001 1.757-2.214 6.8-3.787 1.315-1.914 2.214-.957 2.357.513.086 2.431 1.6 2.643.314 5.558 1.543-.071 6.915 8.272 3.414 1.214 7.574 5.259-4.701 2.313.843 5.773-1.129.885-6.043-.328-1.272-.986-.514-2.171-3.443 1.1-1.815.771-1.743 4.815-2.786 1.243-.357 1.5 7.73 5.543.243 8.916 1.671 3.343-.085 1.943 9.272-.629-1.156 2.343-4.729 1.73-3.729 2.828-4.543 5.758.386 2.743-1.985 1.429v1.314l.627 2.059 9.116-1.873 1.643 4.03-9.073 2.228 2.015 2.672 1.714.587 2.915 5.715 6.516 7.358 1.828 7.201 8.858-2.115 4.773-7.387 6.4 1.472 6.286-6.258 2.628.143 3.487 2.743 2.287-.257 1.756-3.372 6.258-5.929 6.715-2.815 4.3.7 5.2 2.558 2.216 7.244 7.116 2.6-9.902 17.703.144 2.3-1.058-.514-3.144 5.813-.929 4.087-5.244-.613-2.371 4.528-6.172 1.828.199 2.486 1.557.957-4.143 2.672-2.187-.87-5.715.143-2.571-2.258-.586.613.843 2.672-.5 2.016 1.356 2.257 4.858.657-1.472 7.116-3.386-.072-14.215-2.586-6.259.586-5.329 2.657-4.087 4.23-4.843 3.057-11.302-.144-6.529 2.844-3.501 4.157-3.215 8.202-7.872 7.615-6.844 4.843-14.245 4.073-3.572 2.871-16.959 4.657-4.972-.515-16.974-5.672-4.586 3.858-.628 1.642-1.271.044-3.486 4.258-2.086 4.914-3.986 3.23-4.701 2.185-12.973 3.602-6.129-.729-4.229-1.386-17.73-12.944-7.573-.256-4.271-1.529-11.573-1.459-2.714-6.372-.343-7.057-3.729-5.287-1.543-4.843-8.63-1.93-3.215-2.915-4.186-.586-7.816 3.201-4.586 5.829-2.3.442-6.473-2.043-1.872-1.829 4.144-2.656 2.058-5.358.457-2.657-2.372-7.873 3.758-4.271 9.901-2.258 15.945-6.343 4.658.071 2.257 1.057.972.914-2.029-.4-.315 1.601 5.501 3.973-.428-1.9h2.128l2.129-3.43 3.458-2.157-.9-3.687-7.287-11.315.357-2.771 4.429-7.672-.158-1.129-2.986-2.044-.786 2.958-3.258-1.5-4.158 1.5-1.214-1.129 3.486-13.388.071-3-1.128.143v-1.972l1.386-3.215 2.571-.472 2.215-2.601 2.1.958 2.086-.329 5.715 3.258 12.388-10.473 5.386-8.215 22.361-26.99 1.514.658 1.058-1.572-1.171.914-.543-1.072 9.902-9.914 16.845-22.861 15.059-26.989 10.858-23.777zM157.707 646.851l-.585 3.944 1.429-.986 25.632 14.702 7.058 2.515 4.93 5.387 5.7 4.443 4.429 5.973 6.058 4.115 9.773 4.586 11.258.986 2.258-.801 2.558-6.872-19.032-10.374-15.501-4.7-4.158-4.772.086-3.356-3.443-3.83-3.229-1.786-4.029-.042-6.101-6.857-6.844.729-1.557-2.115-.457 1.5-.857-1.1-5.386-1.9-3.386-4.272-4.357 2.187-2.247 2.696z"/></svg>