<?xml version="1.0" encoding="utf-8"?>
<!-- Generator: Adobe Illustrator 22.1.0, SVG Export Plug-In . SVG Version: 6.00 Build 0)  -->
<svg version="1.1" id="Laag_1" xmlns="http://www.w3.org/2000/svg" xmlns:xlink="http://www.w3.org/1999/xlink" x="0px" y="0px"
	 width="233px" height="40px" viewBox="0 0 233 40" style="enable-background:new 0 0 233 40;" xml:space="preserve">
<style type="text/css">
	.st0{fill:#007BC7;}
	.st1{fill:#1E7BC1;}
	.st2{fill:#FFFFFF;}
</style>
<title>een-overheid</title>
<g id="Laag_1-2">
	<path class="st0" d="M52.6,21l0.8,3.4h0.2l0.6-3.5L58,9.4h6.2l-9.3,22.4h-3.5L41.8,9.4h6.7L52.6,21z"/>
	<path class="st0" d="M83.5,29.6c-1.1,0.8-2.3,1.4-3.6,1.8c-1.6,0.5-3.2,0.7-4.8,0.7c-3.6,0-6.2-1-7.9-3.1s-2.5-5-2.5-8.6
		c0-3.9,0.9-6.8,2.8-8.8s4.5-2.9,7.9-2.9c1.1,0,2.2,0.1,3.3,0.4c1,0.3,2,0.8,2.8,1.5c0.9,0.7,1.6,1.7,2,2.8c0.5,1.4,0.8,2.8,0.8,4.3
		c0,0.7,0,1.3-0.1,2c-0.1,0.7-0.2,1.5-0.3,2.2H70.5c0,1.5,0.5,3,1.5,4.2c1.1,1,2.7,1.6,4.2,1.4c1.1,0,2.2-0.2,3.2-0.5
		c0.8-0.3,1.5-0.7,2.2-1.1L83.5,29.6z M75.3,13.4c-1.3-0.1-2.5,0.4-3.3,1.4c-0.8,1.1-1.2,2.3-1.3,3.6h8.2c0.2-1.3-0.1-2.6-0.7-3.7
		C77.5,13.7,76.4,13.3,75.3,13.4z"/>
	<path class="st0" d="M100.6,14.8c-0.8-0.3-1.6-0.5-2.5-0.5c-0.9,0-1.8,0.3-2.6,0.8c-0.7,0.5-1.2,1.3-1.4,2.1v14.3h-5.8V9.4h4.5
		l0.7,2.9h0.2c0.4-1,1.1-1.9,2-2.5c0.9-0.6,1.9-0.9,3-0.9c0.9,0,1.8,0.2,2.6,0.5L100.6,14.8z"/>
	<path class="st0" d="M117.5,31.5V18.9c0.1-1.3-0.2-2.7-0.8-3.9c-0.6-0.9-1.7-1.3-2.8-1.2c-1,0-1.9,0.4-2.7,1
		c-0.8,0.7-1.4,1.5-1.6,2.6v14.2h-5.8V0.5h5.8v11.4h0.2c0.7-0.9,1.6-1.7,2.6-2.3c1.2-0.6,2.6-0.9,3.9-0.8c1,0,2,0.1,3,0.4
		c0.8,0.3,1.6,0.8,2.1,1.5c0.6,0.8,1.1,1.8,1.3,2.8c0.3,1.4,0.4,2.9,0.4,4.3v13.8H117.5z"/>
	<path class="st0" d="M145.8,29.6c-1.1,0.8-2.3,1.4-3.6,1.8c-1.6,0.5-3.2,0.7-4.9,0.7c-3.6,0-6.2-1-7.9-3.1c-1.7-2-2.5-4.9-2.5-8.6
		c0-3.9,0.9-6.8,2.8-8.8s4.5-2.9,7.9-2.9c1.1,0,2.2,0.1,3.3,0.4c1,0.3,2,0.8,2.8,1.5c0.9,0.7,1.6,1.7,2,2.8c0.5,1.4,0.8,2.8,0.8,4.3
		c0,0.6,0,1.3-0.1,2s-0.2,1.5-0.3,2.2h-13.2c0,1.5,0.5,3,1.4,4.2c1.1,1,2.7,1.6,4.2,1.4c1.1,0,2.2-0.2,3.2-0.5
		c0.8-0.3,1.5-0.7,2.2-1.1L145.8,29.6z M137.6,13.3c-1.3-0.1-2.5,0.4-3.3,1.4c-0.8,1.1-1.2,2.3-1.3,3.6h8.2c0.2-1.3-0.1-2.6-0.7-3.7
		C139.8,13.8,138.7,13.3,137.6,13.3L137.6,13.3z"/>
	<path class="st0" d="M150.3,3.1c0-0.8,0.4-1.6,1-2.2c0.7-0.6,1.6-1,2.6-0.9c1,0,2,0.3,2.7,0.9c0.6,0.5,1,1.4,1,2.2
		c0,0.8-0.4,1.6-1,2.2c-0.8,0.6-1.7,0.9-2.7,0.9c-1,0.1-1.9-0.3-2.6-0.9C150.6,4.7,150.2,3.9,150.3,3.1z M151.1,9.4h5.8v22.2h-5.8
		V9.4z"/>
	<path class="st0" d="M181.4,23.7c0,1.2,0,2.5,0,3.7c0,1.4,0.2,2.8,0.4,4.1h-4.1l-0.8-2.9h-0.2c-0.6,1.1-1.5,1.9-2.6,2.5
		c-1.2,0.7-2.6,1-3.9,1c-2.5,0.1-4.9-0.9-6.5-2.7c-1.5-1.8-2.3-4.7-2.3-8.6c0-3.8,0.9-6.7,2.6-8.8c1.7-2.1,4.2-3.1,7.5-3.1
		c0.8,0,1.5,0,2.3,0.1c0.6,0.1,1.2,0.3,1.8,0.5v-9h5.8L181.4,23.7z M171.6,27.3c1,0.1,1.9-0.2,2.7-0.8c0.7-0.6,1.2-1.5,1.4-2.4v-9.4
		c-0.4-0.3-0.9-0.6-1.4-0.7c-0.6-0.2-1.3-0.3-1.9-0.2c-1.4-0.1-2.8,0.5-3.7,1.6c-0.8,1.1-1.2,3-1.2,5.6c-0.1,1.6,0.3,3.2,1,4.6
		C169.1,26.7,170.3,27.4,171.6,27.3z"/>
</g>
<circle class="st1" cx="20.6" cy="20" r="20"/>
<path class="st2" d="M10.6,19.5c0-3.8,0.9-6.7,2.8-8.7c2-2.1,4.8-3.2,7.7-3c1.6,0,3.2,0.2,4.6,0.8C26.9,9.1,28,10,28.9,11
	c0.9,1.1,1.6,2.3,1.9,3.7c0.4,1.6,0.7,3.2,0.6,4.8c0,3.8-0.9,6.7-2.7,8.7c-1.8,2-4.4,3-7.7,3c-1.6,0-3.1-0.3-4.6-0.9
	c-1.3-0.5-2.4-1.3-3.3-2.3c-0.9-1.1-1.6-2.3-2-3.7C10.7,22.7,10.5,21.1,10.6,19.5z M16.5,19.5c0,0.9,0.1,1.8,0.3,2.7
	c0.2,0.8,0.4,1.5,0.8,2.2c0.3,0.6,0.8,1.1,1.4,1.5c0.6,0.3,1.3,0.5,2.1,0.5c1.3,0.1,2.6-0.5,3.4-1.6c0.9-1.6,1.2-3.4,1.1-5.2
	c0.1-1.7-0.3-3.4-1-5c-0.7-1.3-2.1-2-3.5-1.8c-1.3-0.1-2.6,0.5-3.3,1.6C16.9,15.3,16.5,17,16.5,19.5z"/>
</svg>
